<svg width="37" height="54" viewBox="0 0 37 54" fill="none" xmlns="http://www.w3.org/2000/svg">
<g clip-path="url(#clip0_2_3315)">
<path d="M14.9543 49.5004C14.8203 49.3433 14.6986 49.1761 14.5901 49.0004H5.09618C5.01668 49.0004 4.72058 49.0004 4.63618 49.0004C4.19178 49.0177 3.74696 48.9799 3.31188 48.8877C2.97664 48.8073 2.67147 48.6325 2.43248 48.384C2.19465 48.1291 2.03307 47.8126 1.96608 47.4704C1.88861 47.0207 1.85811 46.5642 1.87508 46.1082V15.2917C1.87508 15.1951 1.87508 14.9791 1.87508 14.8798C1.85447 14.4002 1.89157 13.9199 1.98558 13.4491C2.06903 13.0883 2.26209 12.762 2.53828 12.5152C2.68092 12.3892 2.84301 12.2871 3.01828 12.2129C3.19201 12.1407 3.37393 12.09 3.55998 12.062C3.79555 12.0267 4.03328 12.0077 4.27148 12.005C4.42948 12.0012 4.61338 12.0006 4.78948 12.0006H6.07238C6.12174 11.9984 6.17121 12.0009 6.22008 12.0082C6.26871 12.0144 6.314 12.0363 6.34902 12.0706C6.38405 12.1049 6.4069 12.1497 6.41408 12.1982C6.42518 12.2507 6.42408 12.5618 6.42568 12.6082C6.42575 12.7194 6.43427 12.8304 6.45118 12.9402C6.46981 13.0487 6.50703 13.1532 6.56118 13.249C6.64812 13.4008 6.77353 13.527 6.92478 13.6149C7.04267 13.6818 7.17282 13.7243 7.30748 13.7398C7.4432 13.7533 7.57967 13.7576 7.71598 13.7528H13.1406C13.3917 13.7793 13.6453 13.7381 13.8751 13.6335V11.0004H5.09668H4.81128C4.62038 11.0004 4.41928 11.0011 4.24718 11.0053C3.96349 11.0094 3.6804 11.0328 3.39988 11.0753C3.1341 11.1163 2.87431 11.1896 2.62628 11.2935C2.35198 11.4096 2.0983 11.5694 1.87508 11.7666C1.44962 12.1465 1.1501 12.647 1.01648 13.2015C0.899428 13.7573 0.851931 14.3255 0.875078 14.893V15.2917V46.1082C0.856826 46.6365 0.895212 47.1653 0.989578 47.6854C1.09565 48.2057 1.34439 48.6862 1.70798 49.0732C2.07555 49.4559 2.54383 49.7269 3.05878 49.8548C3.5749 49.9693 4.10341 50.0182 4.63178 50.0004C4.72448 50.0004 5.00058 50.0009 5.09668 50.0004H15.4551C15.3169 49.8878 15.1863 49.7661 15.0641 49.6363C15.0244 49.5934 14.9922 49.5447 14.9543 49.5004ZM7.57348 13.0367C7.49881 13.0421 7.4241 13.0267 7.35765 12.9923C7.2912 12.9578 7.23562 12.9055 7.19708 12.8413C7.16434 12.7811 7.1472 12.7136 7.1472 12.6451C7.1472 12.5765 7.16434 12.5091 7.19708 12.4488C7.23564 12.3847 7.29123 12.3326 7.35766 12.2982C7.42409 12.2637 7.49877 12.2484 7.57338 12.2539C7.67089 12.263 7.76149 12.3082 7.82745 12.3806C7.8934 12.453 7.92996 12.5474 7.92996 12.6453C7.92996 12.7433 7.8934 12.8377 7.82745 12.9101C7.76149 12.9825 7.67089 13.0276 7.57338 13.0367H7.57348ZM8.81148 11.3767H11.8985C11.9315 11.3768 11.9631 11.3899 11.9865 11.4132C12.0099 11.4365 12.0231 11.468 12.0234 11.501V11.5019V11.5204C12.0234 11.5537 12.0101 11.5855 11.9866 11.609C11.9632 11.6325 11.9313 11.6457 11.8981 11.6457H8.81148C8.77826 11.6457 8.74642 11.6325 8.72294 11.609C8.69947 11.5855 8.68628 11.5536 8.68628 11.5204V11.5015V11.5005C8.68657 11.4675 8.69989 11.436 8.72333 11.4127C8.74678 11.3895 8.77846 11.3764 8.81148 11.3764V11.3767ZM36.8751 10.392C36.8954 9.7959 36.853 9.19929 36.7486 8.61203C36.6325 8.02747 36.358 7.48605 35.9551 7.04693C35.5516 6.6167 35.0335 6.31073 34.462 6.16503C33.8919 6.03604 33.3076 5.98096 32.7235 6.00113C32.6129 6.00066 32.5017 6.00043 32.3898 6.00043H19.5411H19.2264C19.0151 6.00043 18.7926 6.00123 18.6022 6.00603C18.2885 6.01042 17.9756 6.03665 17.6656 6.08453C17.3715 6.13085 17.0843 6.21352 16.8106 6.33063C16.5067 6.46239 16.2264 6.64282 15.9806 6.86483C15.5086 7.29667 15.1778 7.8609 15.0317 8.48373C14.9022 9.11111 14.8496 9.75193 14.8751 10.392V12.0006V45.6091C14.8548 46.2051 14.8971 46.8015 15.0015 47.3885C15.1176 47.9733 15.3923 48.515 15.7955 48.9542C15.8113 48.971 15.8294 48.9842 15.8455 49.0003C16.0294 49.1905 16.2376 49.3556 16.4647 49.4914C16.7222 49.6437 16.9995 49.7597 17.2888 49.8361C17.3819 49.8609 17.4777 49.8634 17.5717 49.8812C18.0522 49.9653 18.5395 50.0052 19.0273 50.0004C19.1965 50.001 19.3703 50.001 19.5411 50.0004H32.579C33.1747 50.0229 33.7711 49.9766 34.3562 49.8623C34.9439 49.7323 35.4816 49.4353 35.9047 49.0071C36.3264 48.5686 36.6161 48.0202 36.7405 47.4247C36.852 46.8263 36.8972 46.2174 36.8751 45.6091V10.8419C36.8751 10.6914 36.8751 10.5397 36.8751 10.392ZM24.2163 6.51203C24.2163 6.47755 24.23 6.44448 24.2544 6.4201C24.2787 6.39573 24.3118 6.38203 24.3463 6.38203H27.4049C27.4394 6.38203 27.4724 6.39573 27.4968 6.4201C27.5212 6.44448 27.5349 6.47755 27.5349 6.51203V6.53203C27.5349 6.56651 27.5212 6.59957 27.4968 6.62395C27.4724 6.64833 27.4394 6.66203 27.4049 6.66203H24.3458C24.3113 6.66203 24.2782 6.64833 24.2539 6.62395C24.2295 6.59957 24.2158 6.56651 24.2158 6.53203L24.2163 6.51203ZM22.6449 7.34503C22.6852 7.27798 22.7434 7.22344 22.8129 7.18746C22.8823 7.15149 22.9604 7.13548 23.0385 7.14123C23.1405 7.15067 23.2353 7.19788 23.3044 7.27361C23.3734 7.34933 23.4117 7.44811 23.4117 7.55058C23.4117 7.65305 23.3734 7.75183 23.3044 7.82755C23.2353 7.90327 23.1405 7.95048 23.0385 7.95993C22.9604 7.96559 22.8823 7.9495 22.8128 7.91343C22.7433 7.87736 22.6852 7.82274 22.6449 7.75563C22.6106 7.69255 22.5927 7.62189 22.5927 7.5501C22.5927 7.47831 22.6107 7.40767 22.6451 7.34463L22.6449 7.34503ZM35.8751 10.7669V24.4757V45.6285C35.895 46.1562 35.8581 46.6844 35.7651 47.2041C35.682 47.6192 35.4824 48.002 35.1897 48.3078C34.8992 48.601 34.5296 48.803 34.126 48.8891C33.6161 48.9839 33.0972 49.0212 32.579 49.0004H19.5398C19.3984 49.0004 19.1743 49.0004 19.0315 49.0004C18.7866 48.9993 18.5676 48.9931 18.3544 48.9814C18.082 48.9721 17.8112 48.9349 17.5464 48.8703C17.5321 48.8666 17.5212 48.8582 17.5071 48.8542C17.1331 48.7542 16.794 48.553 16.5271 48.2726C16.2468 47.9654 16.0571 47.5864 15.9792 47.1778C15.8909 46.6599 15.856 46.1342 15.8751 45.6091V12.0004C15.8751 11.4863 15.8751 10.8904 15.8751 10.3768C15.8518 9.82376 15.8942 9.26988 16.0016 8.72683C16.1003 8.29662 16.3267 7.90624 16.651 7.60683C16.8165 7.45755 17.0052 7.33623 17.2098 7.24763C17.4083 7.16333 17.6166 7.10408 17.8298 7.07123C18.0938 7.03073 18.3604 7.00891 18.6276 7.00593C18.8103 7.00133 19.0239 7.00063 19.2266 7.00063H19.3922H19.5413H21.492C21.5471 6.99814 21.6022 7.00099 21.6568 7.00913C21.711 7.01599 21.7616 7.04039 21.8007 7.07863C21.8398 7.11687 21.8653 7.16684 21.8734 7.22093C21.8827 7.27535 21.887 7.33052 21.8863 7.38573C21.8864 7.5096 21.8958 7.63329 21.9147 7.75573C21.9356 7.87684 21.9773 7.99343 22.038 8.10033C22.135 8.26973 22.2749 8.41057 22.4437 8.50863C22.5753 8.58326 22.7205 8.63067 22.8708 8.64803C23.0223 8.66304 23.1746 8.66792 23.3267 8.66263H28.4239C28.576 8.66792 28.7284 8.66304 28.8799 8.64803C29.0301 8.63065 29.1754 8.58324 29.307 8.50863C29.4757 8.41057 29.6155 8.26977 29.7125 8.10043C29.7731 7.99352 29.8148 7.87694 29.8357 7.75583C29.8545 7.6334 29.8641 7.50971 29.8642 7.38583C29.8633 7.33061 29.8677 7.27544 29.8771 7.22103C29.8851 7.16695 29.9107 7.11699 29.9497 7.07876C29.9888 7.04052 30.0393 7.01611 30.0936 7.00923C30.1481 7.00099 30.2034 6.99805 30.2585 7.00043H32.3898H32.7186C33.2171 6.98086 33.7162 7.02454 34.2038 7.13043C34.5938 7.22849 34.9476 7.43589 35.2238 7.72823C35.504 8.03548 35.6936 8.41442 35.7715 8.82293C35.8598 9.34132 35.8947 9.86741 35.8755 10.3929C35.8751 10.4604 35.8751 10.7044 35.8751 10.7669Z" fill="#1D1D1F"/>
</g>
<defs>
<clipPath id="clip0_2_3315">
<rect width="36" height="54" fill="white" transform="translate(0.875)"/>
</clipPath>
</defs>
</svg>
