<svg width="39" height="54" viewBox="0 0 39 54" fill="none" xmlns="http://www.w3.org/2000/svg">
<g clip-path="url(#clip0_2_3308)">
<path d="M14.7178 49H5.8599H5.532C5.09317 49.0109 4.65425 48.9818 4.2207 48.913C3.99493 48.8713 3.77614 48.7981 3.5707 48.6955C3.18684 48.5012 2.87505 48.1894 2.6807 47.8055C2.57809 47.6001 2.50487 47.3813 2.4632 47.1555C2.42228 46.9349 2.39762 46.7116 2.3894 46.4874C2.377 46.2339 2.376 45.9596 2.3755 45.6984V11.2191C2.3755 10.9581 2.377 10.6837 2.3894 10.4291C2.39768 10.2057 2.42225 9.98306 2.4629 9.76314C2.5047 9.53715 2.57801 9.31815 2.6807 9.11254C2.87491 8.72859 3.18675 8.41676 3.5707 8.22254C3.77626 8.11977 3.99528 8.04649 4.2213 8.00484C4.49389 7.95567 4.77004 7.92891 5.047 7.92484C5.2789 7.91764 5.5704 7.91714 5.8348 7.91714H6.2418H7.2549C7.29434 7.91708 7.3334 7.92479 7.36986 7.93984C7.40631 7.95488 7.43944 7.97697 7.46736 8.00484C7.49527 8.0327 7.51741 8.06579 7.53252 8.10222C7.54762 8.13865 7.5554 8.17771 7.5554 8.21714V8.60714C7.55585 8.87264 7.66174 9.12709 7.84978 9.31453C8.03781 9.50197 8.2926 9.60704 8.5581 9.60664H13.8762V7.83534V7.43644C13.8762 7.26464 13.8826 7.17474 13.8862 7.00014H6.0418L5.8342 7.00004C5.5596 7.00004 5.2564 7.00074 5.0154 7.00824C4.68665 6.98706 4.35673 6.99221 4.0288 7.02364C3.71169 7.08311 3.40449 7.18679 3.1162 7.33164C2.54398 7.6217 2.07911 8.0866 1.7891 8.65884C1.64427 8.94712 1.54056 9.25428 1.481 9.57134C1.43121 9.8388 1.40083 10.1095 1.3901 10.3813C1.377 10.6498 1.3755 10.9407 1.375 11.2173V11.5843V45.3331V45.7003C1.375 45.9767 1.377 46.2676 1.3901 46.5362C1.40083 46.8081 1.43121 47.0788 1.481 47.3462C1.54055 47.6633 1.64425 47.9705 1.7891 48.2588C2.07928 48.831 2.5441 49.2958 3.1162 49.586C3.40453 49.7308 3.71171 49.8345 4.0288 49.894C4.52407 49.976 5.02592 50.0115 5.5278 50C5.63773 50 5.74843 50 5.8599 50H15.6599C15.2868 49.7277 14.9674 49.3887 14.7177 49H14.7178ZM9.7537 7.41944C9.75375 7.38422 9.76778 7.35046 9.79269 7.32556C9.81761 7.30067 9.85138 7.28667 9.8866 7.28664H12.971C13.0062 7.28667 13.04 7.30066 13.065 7.32555C13.0899 7.35044 13.104 7.3842 13.1041 7.41944V7.44004C13.104 7.4753 13.09 7.50909 13.065 7.534C13.0401 7.55891 13.0063 7.57292 12.971 7.57294H9.8866C9.85136 7.57292 9.81757 7.55891 9.79265 7.53399C9.76774 7.50907 9.75373 7.47528 9.7537 7.44004V7.41944ZM8.2178 8.30004C8.26222 8.22652 8.32613 8.16673 8.40246 8.12731C8.47878 8.0879 8.56453 8.07039 8.6502 8.07674C8.7627 8.08611 8.86757 8.13741 8.94401 8.22048C9.02045 8.30354 9.06288 8.41231 9.06288 8.52519C9.06288 8.63808 9.02045 8.74685 8.94401 8.82991C8.86757 8.91298 8.7627 8.96428 8.6502 8.97364C8.56786 8.98156 8.48494 8.96663 8.41053 8.93049C8.33612 8.89436 8.27312 8.83841 8.22844 8.7688C8.18375 8.69919 8.15912 8.61861 8.15724 8.53592C8.15537 8.45322 8.17632 8.37161 8.2178 8.30004ZM37.3749 7.68804C37.3744 7.38624 37.3727 7.06874 37.3585 6.77574C37.3469 6.4791 37.3138 6.18369 37.2594 5.89184C37.1946 5.54633 37.0816 5.21163 36.9237 4.89754C36.6078 4.27392 36.1012 3.76733 35.4776 3.45144C35.1635 3.29359 34.8288 3.18059 34.4833 3.11574C33.9383 3.026 33.386 2.98743 32.8338 3.00054C32.6886 3.00054 32.5421 3.00054 32.3938 3.00054H20.4601H20.2335C19.9345 3.00054 19.6041 3.00144 19.3417 3.00954C18.9811 3.01598 18.6216 3.05166 18.2667 3.11624C17.9212 3.18105 17.5865 3.29405 17.2724 3.45194C16.6488 3.76783 16.1422 4.27442 15.8263 4.89804C15.6684 5.21213 15.5554 5.54683 15.4906 5.89234C15.4361 6.18417 15.403 6.47959 15.3915 6.77624C15.3854 6.90204 15.3869 7.03624 15.3844 7.16794C15.3815 7.34284 15.3754 7.51634 15.3751 7.68854V8.08574V44.9157C15.3751 45.0499 15.3751 45.1823 15.3751 45.3129C15.3756 45.6147 15.3773 45.9322 15.3915 46.2251C15.403 46.5219 15.4361 46.8173 15.4906 47.1092C15.5554 47.4547 15.6684 47.7894 15.8263 48.1034C15.9834 48.4132 16.1885 48.6961 16.434 48.9418C16.4616 48.9693 16.494 48.9908 16.5226 49.0173C16.7465 49.2289 16.999 49.4082 17.2726 49.5497C17.5867 49.7075 17.9214 49.8205 18.2669 49.8852C18.5856 49.9426 18.9081 49.9757 19.2318 49.9842C19.4588 49.9935 19.6869 49.9994 19.9164 50.0003C20.0235 50.0008 20.1314 50.0008 20.2403 50.0003H32.2903H32.5181C32.8169 50.0003 33.1465 49.9994 33.4087 49.9913C33.7693 49.985 34.1288 49.9493 34.4837 49.8846C34.8292 49.8198 35.1639 49.7069 35.478 49.5491C36.1015 49.233 36.6081 48.7264 36.9241 48.1028C37.082 47.7888 37.195 47.4541 37.2598 47.1086C37.3142 46.8167 37.3473 46.5213 37.3589 46.2245C37.3731 45.9316 37.3748 45.6145 37.3753 45.3123C37.3753 45.1815 37.3753 45.0491 37.3753 44.9151V8.08524C37.3749 7.95104 37.3749 7.81894 37.3749 7.68804ZM24.6461 3.59284C24.6461 3.55763 24.6601 3.52387 24.685 3.49897C24.7099 3.47407 24.7437 3.46007 24.7789 3.46004H27.8634C27.8986 3.4601 27.9324 3.4741 27.9572 3.499C27.9821 3.52389 27.9961 3.55764 27.9962 3.59284V3.61364C27.9962 3.64887 27.9822 3.68264 27.9573 3.70755C27.9324 3.73247 27.8986 3.74649 27.8634 3.74654H24.7789C24.7437 3.74652 24.7099 3.7325 24.685 3.70758C24.6601 3.68266 24.6461 3.64887 24.6461 3.61364V3.59284ZM23.16 4.43054C23.2013 4.36222 23.2594 4.30566 23.3289 4.26628C23.3983 4.22689 23.4767 4.20602 23.5565 4.20564L23.5926 4.20724C23.7051 4.21661 23.81 4.26791 23.8864 4.35097C23.9629 4.43404 24.0053 4.54281 24.0053 4.65569C24.0053 4.76858 23.9629 4.87735 23.8864 4.96041C23.81 5.04348 23.7051 5.09478 23.5926 5.10414L23.5569 5.10574C23.4773 5.10701 23.3988 5.08712 23.3294 5.04812C23.2599 5.00912 23.2021 4.95241 23.1618 4.88376C23.1214 4.81511 23.1 4.73698 23.0998 4.65736C23.0995 4.57774 23.1203 4.49947 23.1602 4.43054H23.16ZM36.3749 44.9148V45.3104C36.3749 45.5967 36.3717 45.8979 36.3583 46.1764C36.3491 46.4248 36.3219 46.6721 36.2768 46.9164C36.2297 47.1708 36.147 47.4173 36.0311 47.6486C35.8112 48.0836 35.458 48.4368 35.0231 48.6567C34.7919 48.7724 34.5455 48.855 34.2912 48.9018C33.9894 48.9564 33.6837 48.9861 33.3771 48.9905C33.1242 48.9983 32.8058 49.0005 32.5171 49.0005H20.2401L19.9198 49C19.6789 48.9991 19.4436 48.9933 19.214 48.9827C18.9606 48.9739 18.7081 48.9469 18.4586 48.9017C18.2043 48.8548 17.958 48.7724 17.7267 48.6567C17.2917 48.4365 16.9385 48.0832 16.7184 47.6481C16.6026 47.4168 16.52 47.1703 16.473 46.9158C16.4277 46.6715 16.4005 46.4242 16.3915 46.1758C16.3781 45.8979 16.3749 45.5967 16.3749 45.31V44.8714V8.08524V7.69004C16.3749 7.51744 16.3822 7.34304 16.3854 7.16784C16.3878 7.05244 16.3861 6.93454 16.3915 6.82394C16.4005 6.5756 16.4278 6.32825 16.4733 6.08394C16.5201 5.82949 16.6028 5.58294 16.7187 5.35164C16.9385 4.91666 17.2917 4.56343 17.7267 4.34364C17.958 4.22798 18.2043 4.14544 18.4586 4.09844C18.7604 4.04404 19.0661 4.01441 19.3727 4.00984C19.6261 4.00204 19.9447 4.00134 20.2335 4.00134H20.351H21.2018V4.00194H22.1461C22.1856 4.00184 22.2247 4.00952 22.2612 4.02455C22.2976 4.03958 22.3308 4.06166 22.3587 4.08953C22.3867 4.1174 22.4089 4.1505 22.424 4.18695C22.4391 4.2234 22.4469 4.26248 22.4469 4.30194V4.69194C22.447 4.82343 22.473 4.95361 22.5235 5.07504C22.5739 5.19647 22.6478 5.30677 22.7409 5.39964C22.834 5.4925 22.9445 5.56612 23.066 5.61627C23.1876 5.66643 23.3178 5.69214 23.4493 5.69194H29.2493C29.5127 5.69231 29.7655 5.5889 29.9532 5.40412C30.1408 5.21934 30.2481 4.96807 30.2518 4.70474L30.2567 4.29894C30.2579 4.21997 30.2901 4.14462 30.3463 4.08919C30.4026 4.03376 30.4784 4.00271 30.5574 4.00274H31.5741V4.00124H32.3932H32.8297C33.3188 3.98908 33.808 4.02141 34.2912 4.09784C34.5455 4.14478 34.7919 4.22733 35.0231 4.34304C35.4581 4.56309 35.8114 4.91646 36.0314 5.35154C36.1472 5.58265 36.2297 5.82895 36.2765 6.08314C36.3218 6.32748 36.3492 6.57481 36.3583 6.82314C36.3717 7.10114 36.3747 7.40244 36.3749 7.68904V8.12764V44.9148Z" fill="#1D1D1F"/>
</g>
<defs>
<clipPath id="clip0_2_3308">
<rect width="38" height="54" fill="white" transform="translate(0.375)"/>
</clipPath>
</defs>
</svg>
