<svg width="40" height="54" viewBox="0 0 40 54" fill="none" xmlns="http://www.w3.org/2000/svg">
<g clip-path="url(#clip0_2_3340)">
<path d="M27.4547 39.8356C28.3057 40.0616 29.1836 40.1703 30.064 40.1589V48.5867C30.0372 48.9427 29.8876 49.2782 29.6407 49.536C29.3938 49.7937 29.0651 49.9577 28.7106 49.9998H27.1624C26.7642 49.9563 26.3968 49.7654 26.1323 49.4646C25.8678 49.1637 25.7255 48.7748 25.7333 48.3743V39.1843C26.2925 39.4383 26.8675 39.6558 27.4547 39.8356ZM25.7333 38.0885C24.4791 37.4492 23.3559 36.5804 22.4219 35.5271C21.483 34.5042 20.9171 33.1941 20.8158 31.8092C20.7734 30.6334 21.0507 29.468 21.6181 28.4372C22.1025 27.6459 22.7686 26.9816 23.5613 26.4995C24.354 26.0173 25.2502 25.7313 26.1756 25.6651C26.2216 25.6651 26.2679 25.6659 26.3144 25.6674C27.7063 25.7134 31.0696 26.0262 34.0903 30.0264C33.927 30.0326 33.7641 30.0471 33.6022 30.0699C32.7918 30.2063 32.0193 30.5123 31.3354 30.9679C30.6515 31.4236 30.0716 32.0186 29.6337 32.714C28.7952 34.0085 28.3648 35.5249 28.3983 37.0668C28.4063 37.2947 28.4351 37.5213 28.4842 37.7439C28.5966 38.2344 28.7999 38.6996 29.0835 39.1152C28.6309 39.0819 28.1828 39.0028 27.7461 38.879C27.0545 38.6717 26.3812 38.4073 25.7333 38.0885ZM26.7989 31.7555C26.992 31.8881 27.2249 31.9501 27.4583 31.931C27.6918 31.9119 27.9115 31.8129 28.0804 31.6506L28.1384 31.5782C28.2447 31.4653 28.3227 31.3288 28.3661 31.1799C28.4095 31.0311 28.4172 30.874 28.3884 30.7217C28.3596 30.5693 28.2951 30.4259 28.2004 30.3032C28.1056 30.1804 27.9832 30.0818 27.843 30.0154L26.333 29.0436C26.1226 28.8969 25.8689 28.8251 25.6128 28.84C25.3566 28.8548 25.1129 28.9553 24.9208 29.1253L24.8359 29.2077C24.7479 29.3154 24.6841 29.4407 24.6487 29.5752C24.6134 29.7096 24.6074 29.8501 24.6311 29.9871C24.6548 30.1241 24.7077 30.2544 24.7862 30.3692C24.8646 30.484 24.9669 30.5805 25.0859 30.6523L26.7989 31.7555ZM38.5334 35.951C38.4946 36.1529 38.4421 36.352 38.3763 36.5467C38.2156 37.0089 38.002 37.451 37.7399 37.8641C37.4253 38.4193 37.0243 38.9208 36.5519 39.3498C36.1631 39.7364 35.6995 40.0397 35.1896 40.2411C34.6796 40.4425 34.1339 40.5379 33.5858 40.5213C32.9565 40.5227 32.3316 40.4162 31.7382 40.2064C31.664 40.1717 31.6059 40.1374 31.5361 40.1028C31.2543 39.9655 30.9813 39.8108 30.7186 39.6396C30.5004 39.4975 30.295 39.3365 30.1048 39.1584C30.0904 39.1447 30.078 39.1309 30.0641 39.1171C29.6331 38.6949 29.3369 38.1545 29.2127 37.5641C29.1822 37.4288 29.1618 37.2914 29.1519 37.153C28.9953 35.3309 30.0896 31.4296 33.7285 30.8089C33.9568 30.7688 34.1881 30.748 34.4198 30.7468C34.4872 30.7468 34.5588 30.7579 34.628 30.7621C34.8933 30.7741 35.1557 30.822 35.408 30.9045C35.4554 30.921 35.4969 30.9479 35.5434 30.9657C35.7911 31.0582 36.0309 31.1705 36.2604 31.3015C36.9998 31.7278 37.6105 32.3456 38.0282 33.0898C38.2925 33.5785 38.4725 34.1082 38.5605 34.6566C38.6205 35.0868 38.6114 35.5238 38.5334 35.951ZM37.2297 35.171C37.081 34.6823 36.5179 34.693 36.1673 35.171L34.4249 37.5724C34.1582 38.0717 34.36 38.6774 34.8275 38.6348H34.8286C35.5627 38.416 36.2004 37.9537 36.6368 37.3242C37.0732 36.6947 37.2823 35.9354 37.2297 35.1712V35.171ZM9.77973 40.1587V48.5865C9.80647 48.9425 9.95611 49.2781 10.203 49.5359C10.4499 49.7937 10.7787 49.9577 11.1332 49.9998H12.6813C13.0795 49.9564 13.447 49.7654 13.7115 49.4646C13.976 49.1637 14.1183 48.7748 14.1104 48.3743V39.1843C13.5513 39.4381 12.9763 39.6555 12.3891 39.8352C11.5381 40.0613 10.6603 40.1702 9.77983 40.1589L9.77973 40.1587ZM18.2254 28.437C18.7929 29.4678 19.0701 30.6332 19.0277 31.809C18.9266 33.1939 18.3608 34.5041 17.4219 35.5271C16.488 36.5805 15.3648 37.4493 14.1106 38.0885C13.4627 38.4072 12.7894 38.6714 12.0977 38.8785C11.6602 39.0024 11.2112 39.0816 10.7577 39.1148C11.0429 38.6997 11.2471 38.2344 11.3594 37.7434C11.4086 37.5208 11.4374 37.2942 11.4453 37.0663C11.4788 35.5246 11.0484 34.0083 10.2099 32.714C9.77208 32.0187 9.19226 31.4237 8.50844 30.968C7.82463 30.5123 7.05226 30.2062 6.24193 30.0698C6.08007 30.0471 5.91716 30.0325 5.75383 30.0263C8.77453 26.0263 12.1378 25.7133 13.5297 25.6673C13.5764 25.6658 13.6223 25.665 13.6685 25.665C14.5938 25.7313 15.49 26.0174 16.2826 26.4996C17.0751 26.9817 17.7412 27.646 18.2255 28.4372L18.2254 28.437ZM15.0081 29.207L14.9232 29.1246C14.7311 28.9546 14.4874 28.8541 14.2313 28.8393C13.9751 28.8244 13.7215 28.8962 13.511 29.0429L12.001 30.0147C11.8609 30.0812 11.7385 30.1797 11.6437 30.3025C11.5489 30.4252 11.4845 30.5686 11.4557 30.721C11.4269 30.8733 11.4345 31.0303 11.4779 31.1792C11.5213 31.3281 11.5993 31.4646 11.7055 31.5775L11.7636 31.6499C11.9326 31.8122 12.1523 31.9112 12.3857 31.9303C12.6192 31.9494 12.8521 31.8874 13.0451 31.7548L14.7589 30.6516C14.8778 30.5798 14.9799 30.4832 15.0582 30.3684C15.1366 30.2537 15.1893 30.1235 15.213 29.9866C15.2366 29.8497 15.2306 29.7093 15.1952 29.5749C15.1599 29.4405 15.0961 29.3153 15.0082 29.2077L15.0081 29.207ZM9.77973 39.117C9.76583 39.1308 9.75342 39.1445 9.73903 39.1582C9.54891 39.3363 9.34352 39.4973 9.12523 39.6394C8.86255 39.8106 8.58949 39.9653 8.30763 40.1026C8.23763 40.1372 8.17983 40.1715 8.10563 40.2062C7.51228 40.416 6.88736 40.5225 6.25803 40.5211C5.70998 40.5377 5.16432 40.4423 4.65435 40.241C4.14438 40.0396 3.6808 39.7364 3.29193 39.3498C2.8195 38.9207 2.41844 38.4191 2.10383 37.8638C1.84172 37.4507 1.62817 37.0086 1.46743 36.5464C1.4016 36.3517 1.34911 36.1526 1.31033 35.9507C1.23236 35.5234 1.22321 35.0864 1.28323 34.6562C1.37136 34.1079 1.55135 33.5783 1.81563 33.0898C2.23346 32.3456 2.84432 31.7279 3.58383 31.3018C3.81319 31.1709 4.05277 31.0587 4.30023 30.9663C4.34703 30.9484 4.38873 30.9214 4.43623 30.9048C4.68859 30.8223 4.95098 30.7744 5.21623 30.7624C5.28543 30.7582 5.35703 30.7471 5.42443 30.7471C5.6562 30.7483 5.88745 30.7691 6.11573 30.8092C9.75463 31.4299 10.8489 35.3312 10.6923 37.1533C10.6824 37.2917 10.6621 37.4291 10.6315 37.5644C10.5073 38.1549 10.2109 38.6953 9.77983 39.1175L9.77973 39.117ZM5.41893 37.5724L3.67653 35.1712C3.32593 34.6932 2.76283 34.6825 2.61413 35.1712C2.56372 35.5458 2.58849 35.9266 2.687 36.2915C2.7855 36.6563 2.95576 36.9979 3.18783 37.2961C3.3845 37.6325 3.64818 37.9249 3.96253 38.1552C4.27688 38.3855 4.63518 38.5488 5.01523 38.6348H5.01623C5.48383 38.6774 5.68563 38.0717 5.41893 37.5724Z" fill="#1D1D1F"/>
</g>
<defs>
<clipPath id="clip0_2_3340">
<rect width="39" height="54" fill="white" transform="translate(0.421875)"/>
</clipPath>
</defs>
</svg>
