<svg width="41" height="54" viewBox="0 0 41 54" fill="none" xmlns="http://www.w3.org/2000/svg">
<g clip-path="url(#clip0_2_3301)">
<path d="M17.4696 50.0003H6.84432H6.47432C6.37592 50.0003 6.27815 50 6.18102 49.9993C5.66965 50.0084 5.15854 49.9701 4.65422 49.885C4.30912 49.8202 3.9748 49.7074 3.66102 49.5498C3.03832 49.2339 2.53236 48.728 2.21642 48.1053C2.05879 47.7916 1.94602 47.4573 1.88142 47.1122C1.7908 46.5592 1.75223 45.999 1.76622 45.4388V45.1455C1.76622 45.0714 1.76622 44.9967 1.76622 44.9216V12.079C1.76622 12.0038 1.76622 11.9292 1.76622 11.8551C1.76622 11.7566 1.76622 11.6588 1.76622 11.5618C1.75224 11.0016 1.7908 10.4414 1.88142 9.88841C1.94603 9.54332 2.0588 9.20902 2.21642 8.89531C2.53231 8.27275 3.03816 7.7669 3.66072 7.45101C3.9745 7.29341 4.30882 7.18058 4.65392 7.11581C5.00828 7.05129 5.36729 7.01567 5.72742 7.00931C5.98962 7.00121 6.31922 7.00031 6.61802 7.00031H6.84432H15.7169C15.7115 7.18951 15.7037 7.37771 15.703 7.56931V7.72151V7.86431V8.00031H6.84432H6.73572H6.61802C6.32972 8.00031 6.01132 8.00091 5.75802 8.00881C5.45201 8.01332 5.14689 8.04292 4.84572 8.09731C4.59179 8.14419 4.34574 8.22663 4.11482 8.34221C3.68032 8.56211 3.32735 8.91497 3.10732 9.34941C2.99196 9.58005 2.90969 9.8258 2.86292 10.0794C2.78509 10.5705 2.75272 11.0678 2.76622 11.5649V11.8549V12.0788V44.9216V45.1421V45.438C2.75279 45.934 2.78516 46.4302 2.86292 46.9203C2.90959 47.1743 2.99194 47.4205 3.10752 47.6514C3.32731 48.0859 3.68017 48.4387 4.11462 48.6585C4.34555 48.774 4.5916 48.8564 4.84552 48.9033C5.28915 48.9757 5.73841 49.0077 6.18782 48.9991L6.47492 49.0003H6.84432H16.5357C16.7814 49.3893 17.0981 49.7285 17.4693 50.0003H17.4696ZM14.3521 8.58661C14.5944 8.58661 14.8269 8.68287 14.9982 8.85422C15.1696 9.02558 15.2658 9.25798 15.2658 9.50031C15.2658 9.74264 15.1696 9.97504 14.9982 10.1464C14.8269 10.3177 14.5944 10.414 14.3521 10.414H10.1795C9.93719 10.414 9.70479 10.3177 9.53344 10.1464C9.36209 9.97504 9.26582 9.74264 9.26582 9.50031C9.26582 9.25798 9.36209 9.02558 9.53344 8.85422C9.70479 8.68287 9.93719 8.58661 10.1795 8.58661H14.3521ZM14.4044 9.05031C14.3154 9.05031 14.2284 9.0767 14.1544 9.12615C14.0804 9.17559 14.0227 9.24587 13.9887 9.3281C13.9546 9.41033 13.9457 9.50081 13.9631 9.5881C13.9804 9.67539 14.0233 9.75557 14.0862 9.81851C14.1492 9.88144 14.2293 9.9243 14.3166 9.94166C14.4039 9.95903 14.4944 9.95011 14.5766 9.91605C14.6589 9.88199 14.7291 9.82432 14.7786 9.75032C14.828 9.67631 14.8544 9.58931 14.8544 9.50031C14.8544 9.38096 14.807 9.2665 14.7226 9.18211C14.6382 9.09772 14.5238 9.05031 14.4044 9.05031ZM31.2657 5.50031C31.2657 5.74261 31.1694 5.97498 30.9981 6.14633C30.8268 6.31767 30.5944 6.41396 30.3521 6.41401H26.1795C25.9372 6.41401 25.7048 6.31774 25.5334 6.14639C25.3621 5.97504 25.2658 5.74264 25.2658 5.50031C25.2658 5.25798 25.3621 5.02558 25.5334 4.85422C25.7048 4.68287 25.9372 4.58661 26.1795 4.58661H30.3521C30.5944 4.58663 30.8268 4.68291 30.9981 4.85426C31.1695 5.02561 31.2657 5.258 31.2657 5.50031ZM30.8541 5.50031C30.8541 5.41131 30.8277 5.3243 30.7783 5.2503C30.7288 5.1763 30.6586 5.11862 30.5763 5.08456C30.4941 5.0505 30.4036 5.04159 30.3163 5.05895C30.229 5.07632 30.1489 5.11918 30.0859 5.18211C30.023 5.24504 29.9801 5.32523 29.9628 5.41252C29.9454 5.49981 29.9543 5.59029 29.9884 5.67252C30.0224 5.75474 30.0801 5.82502 30.1541 5.87447C30.2281 5.92392 30.3151 5.95031 30.4041 5.95031C30.5235 5.95031 30.6379 5.9029 30.7223 5.81851C30.8067 5.73412 30.8541 5.61966 30.8541 5.50031ZM39.7657 7.86691V45.1337C39.7657 45.2325 39.7657 45.3304 39.7652 45.4277C39.7794 45.9892 39.7408 46.5509 39.65 47.1052C39.585 47.4511 39.4718 47.7861 39.3138 48.1006C38.9973 48.7249 38.4901 49.2321 37.8657 49.5485C37.5513 49.7065 37.2163 49.8197 36.8704 49.8845C36.5152 49.9492 36.1553 49.9849 35.7942 49.9913C35.532 49.9994 35.2024 50.0003 34.9036 50.0003H34.6743H21.8568H21.4857C21.387 50.0003 21.289 50 21.1917 49.9993C20.7683 49.9997 20.3453 49.9721 19.9254 49.9169C19.8377 49.9046 19.7476 49.9015 19.6612 49.8847C19.3154 49.8199 18.9803 49.7067 18.6659 49.5487C18.3846 49.4038 18.1256 49.2191 17.8968 49.0003C17.8741 48.979 17.848 48.962 17.826 48.9403C17.5803 48.6943 17.375 48.411 17.2176 48.101C17.0596 47.7865 16.9464 47.4515 16.8814 47.1056C16.7905 46.5512 16.7517 45.9894 16.7657 45.4277C16.7657 45.3304 16.7657 45.2325 16.7657 45.1337V7.86691C16.7657 7.76801 16.7657 7.67011 16.7657 7.57281C16.7664 7.38101 16.773 7.19091 16.7784 7.00041C16.7826 6.62987 16.8169 6.26029 16.8809 5.89531C16.9461 5.54955 17.0595 5.21462 17.2176 4.90031C17.5339 4.27578 18.0412 3.76845 18.6657 3.45211C18.9801 3.29407 19.3152 3.18096 19.661 3.11611C20.0163 3.0514 20.3762 3.01569 20.7372 3.00931C20.9994 3.00121 21.329 3.00031 21.6278 3.00031H21.8571H34.6746H34.8614H35.0457C35.1443 3.00031 35.2422 3.00031 35.3399 3.00131C35.8524 2.99221 36.3645 3.03057 36.8699 3.11591C37.2158 3.18077 37.5508 3.29387 37.8652 3.45191C38.4899 3.76822 38.9974 4.27563 39.3138 4.90031C39.4718 5.21475 39.585 5.54977 39.65 5.89561C39.7409 6.44983 39.7797 7.01135 39.7657 7.57281V7.86691ZM38.7657 7.86691V7.71811V7.57531C38.7793 7.07732 38.7469 6.57915 38.669 6.08711C38.6219 5.83243 38.5393 5.58565 38.4234 5.35401C38.2028 4.91789 37.8486 4.56369 37.4124 4.34311C37.1809 4.22727 36.9341 4.14463 36.6795 4.09761C36.2348 4.02502 35.7844 3.99285 35.3338 4.00151L35.045 4.00031H34.8614H34.7689H21.8568H21.7468H21.6279C21.3393 4.00031 21.0212 4.00101 20.7679 4.00881C20.4608 4.01327 20.1546 4.04297 19.8524 4.09761C19.5977 4.14466 19.3509 4.22734 19.1192 4.34321C18.6833 4.5635 18.3292 4.91739 18.1087 5.35321C17.9927 5.58508 17.91 5.83214 17.8629 6.08711C17.8108 6.38881 17.7825 6.69416 17.7784 7.00031C17.7725 7.18731 17.7669 7.37351 17.7662 7.57611V7.72401V7.86921V45.1337V45.2765V45.4252C17.7527 45.9232 17.785 46.4213 17.8629 46.9133C17.91 47.168 17.9927 47.4149 18.1085 47.6466C18.329 48.0826 18.6831 48.4367 19.119 48.6573C19.3507 48.7732 19.5976 48.8559 19.8524 48.903C19.8717 48.9068 19.8931 48.9066 19.9124 48.9101C20.3377 48.9752 20.7676 49.0049 21.1978 48.9991L21.4859 49.0001H21.8565H34.785H34.9039C35.1925 49.0001 35.5106 48.9994 35.7639 48.9916C36.071 48.987 36.3772 48.9573 36.6794 48.9028C36.9341 48.8558 37.181 48.7731 37.4126 48.6572C37.8483 48.4365 38.2022 48.0824 38.4226 47.6466C38.5386 47.4148 38.6214 47.1677 38.6684 46.9128C38.7465 46.4207 38.7791 45.9224 38.7657 45.4243V45.2825V45.1312V7.86691Z" fill="#1D1D1F"/>
</g>
<defs>
<clipPath id="clip0_2_3301">
<rect width="40" height="54" fill="white" transform="translate(0.765625)"/>
</clipPath>
</defs>
</svg>
