<svg width="46" height="54" viewBox="0 0 46 54" fill="none" xmlns="http://www.w3.org/2000/svg">
<g clip-path="url(#clip0_2_3334)">
<path d="M14.7656 13H5.76562C4.30747 13.0017 2.90954 13.5818 1.87847 14.6128C0.847395 15.6439 0.267372 17.0418 0.265625 18.5L0.265625 44.5C0.267451 45.9581 0.8475 47.356 1.87855 48.3871C2.90961 49.4181 4.30749 49.9982 5.76562 50H14.7656C16.2238 49.9982 17.6216 49.4181 18.6527 48.3871C19.6838 47.356 20.2638 45.9581 20.2656 44.5V18.5C20.2639 17.0418 19.6839 15.6439 18.6528 14.6128C17.6217 13.5818 16.2238 13.0017 14.7656 13ZM18.2656 44.5C18.2645 45.4279 17.8954 46.3175 17.2393 46.9736C16.5831 47.6298 15.6935 47.9989 14.7656 48H5.76562C4.83771 47.9989 3.94812 47.6298 3.29198 46.9736C2.63584 46.3175 2.26674 45.4279 2.26562 44.5V18.5C2.26674 17.5721 2.63584 16.6825 3.29198 16.0264C3.94812 15.3702 4.83771 15.0011 5.76562 15H14.7656C15.6935 15.0011 16.5831 15.3702 17.2393 16.0264C17.8954 16.6825 18.2645 17.5721 18.2656 18.5V44.5ZM44.2656 36.5H45.2656V42.5H44.2656V36.5ZM32.2656 13H38.2656V14H32.2656V13ZM44.2656 28.5H45.2656V34.5H44.2656V28.5ZM32.2656 49H38.2656V50H32.2656V49ZM26.2656 34.5H25.2656V28.5H26.2656V34.5ZM26.2656 26.5H25.2656V20.5H26.2656V26.5ZM26.2656 42.5H25.2656V36.5H26.2656V42.5ZM40.2656 14.05V13.0253C41.6312 13.1512 42.9005 13.7822 43.8253 14.7948C44.7501 15.8074 45.2637 17.1287 45.2656 18.5H44.2656C44.2635 17.396 43.8543 16.3315 43.1162 15.5104C42.3782 14.6893 41.3632 14.1693 40.2656 14.05ZM44.2656 44.5H45.2656C45.2637 45.8713 44.7501 47.1926 43.8253 48.2052C42.9005 49.2178 41.6312 49.8488 40.2656 49.9747V48.95C41.3632 48.8307 42.3782 48.3107 43.1162 47.4896C43.8543 46.6685 44.2635 45.604 44.2656 44.5ZM30.2656 13.0253V14.05C29.1681 14.1693 28.1531 14.6893 27.415 15.5104C26.6769 16.3315 26.2677 17.396 26.2656 18.5H25.2656C25.2675 17.1287 25.7811 15.8074 26.7059 14.7948C27.6307 13.7822 28.9001 13.1512 30.2656 13.0253ZM30.2656 48.95V49.9751C28.9 49.8492 27.6306 49.2181 26.7058 48.2054C25.781 47.1928 25.2674 45.8714 25.2656 44.5H26.2656C26.2677 45.604 26.6769 46.6685 27.415 47.4896C28.1531 48.3107 29.1681 48.8307 30.2656 48.95ZM44.2656 20.5H45.2656V26.5H44.2656V20.5Z" fill="#1D1D1F"/>
</g>
<defs>
<clipPath id="clip0_2_3334">
<rect width="45" height="54" fill="white" transform="translate(0.265625)"/>
</clipPath>
</defs>
</svg>
