<svg width="37" height="54" viewBox="0 0 37 54" fill="none" xmlns="http://www.w3.org/2000/svg">
<g clip-path="url(#clip0_2_3359)">
<path d="M32.0781 24H4.07812C1.86812 24 0.078125 25.79 0.078125 28V46C0.078125 48.21 1.86812 50 4.07812 50H32.0781C34.2881 50 36.0781 48.21 36.0781 46V28C36.0781 25.79 34.2881 24 32.0781 24ZM7.36812 27.45C7.63812 27.13 8.04813 26.92 8.41813 26.92C8.43813 27.34 8.31812 27.71 8.04812 28.01C7.80813 28.33 7.37813 28.62 6.99813 28.57C6.90812 28.15 7.14813 27.72 7.36812 27.45ZM9.40812 33.15C9.11812 33.59 8.77812 34.08 8.28813 34.08C7.82812 34.08 7.64813 33.77 7.10813 33.77C6.53813 33.77 6.36812 34.08 5.92812 34.08C5.43812 34.08 5.11812 33.59 4.80813 33.15C4.40812 32.58 4.07812 31.65 4.06813 30.79C4.05813 30.33 4.15813 29.93 4.37813 29.55C4.68813 29.02 5.25812 28.63 5.86812 28.62C6.33812 28.6 6.75812 28.93 7.04812 28.93C7.31812 28.93 7.83812 28.63 8.40812 28.62C8.77812 28.61 9.29813 28.73 9.70813 29.36C9.67813 29.38 8.89812 29.78 8.89812 30.71C8.93812 31.77 9.87813 32.15 9.88813 32.15C9.88813 32.18 9.76812 32.64 9.40812 33.15Z" fill="#1D1D1F"/>
</g>
<defs>
<clipPath id="clip0_2_3359">
<rect width="36" height="54" fill="white" transform="translate(0.078125)"/>
</clipPath>
</defs>
</svg>
