<svg width="20" height="54" viewBox="0 0 20 54" fill="none" xmlns="http://www.w3.org/2000/svg">
<g clip-path="url(#clip0_2_3321)">
<path d="M16.6406 10H3.64062C2.84571 10.0024 2.08402 10.3192 1.52193 10.8813C0.959832 11.4434 0.642999 12.2051 0.640625 13L0.640625 47C0.642999 47.7949 0.959832 48.5566 1.52193 49.1187C2.08402 49.6808 2.84571 49.9976 3.64062 50H16.6406C17.4355 49.9976 18.1972 49.6808 18.7593 49.1187C19.3214 48.5566 19.6383 47.7949 19.6406 47V13C19.6383 12.2051 19.3214 11.4434 18.7593 10.8813C18.1972 10.3192 17.4355 10.0024 16.6406 10ZM7.89062 12.25H12.3906C12.4569 12.25 12.5205 12.2763 12.5674 12.3232C12.6143 12.3701 12.6406 12.4337 12.6406 12.5C12.6406 12.5663 12.6143 12.6299 12.5674 12.6768C12.5205 12.7237 12.4569 12.75 12.3906 12.75H7.89062C7.82432 12.75 7.76073 12.7237 7.71385 12.6768C7.66696 12.6299 7.64062 12.5663 7.64062 12.5C7.64062 12.4337 7.66696 12.3701 7.71385 12.3232C7.76073 12.2763 7.82432 12.25 7.89062 12.25ZM6.14062 12.125C6.21479 12.125 6.2873 12.147 6.34896 12.1882C6.41063 12.2294 6.4587 12.288 6.48708 12.3565C6.51546 12.425 6.52289 12.5004 6.50842 12.5732C6.49395 12.6459 6.45823 12.7127 6.40579 12.7652C6.35335 12.8176 6.28653 12.8533 6.21378 12.8678C6.14104 12.8823 6.06564 12.8748 5.99712 12.8465C5.9286 12.8181 5.87003 12.77 5.82882 12.7083C5.78762 12.6467 5.76562 12.5742 5.76562 12.5C5.76562 12.4005 5.80513 12.3052 5.87546 12.2348C5.94579 12.1645 6.04117 12.125 6.14062 12.125ZM10.1406 49.25C9.79451 49.25 9.45616 49.1474 9.16838 48.9551C8.88059 48.7628 8.65629 48.4895 8.52384 48.1697C8.39138 47.8499 8.35673 47.4981 8.42425 47.1586C8.49177 46.8191 8.65845 46.5073 8.90319 46.2626C9.14793 46.0178 9.45975 45.8512 9.79922 45.7836C10.1387 45.7161 10.4906 45.7508 10.8103 45.8832C11.1301 46.0157 11.4034 46.24 11.5957 46.5278C11.788 46.8155 11.8906 47.1539 11.8906 47.5C11.8906 47.9641 11.7063 48.4092 11.3781 48.7374C11.0499 49.0656 10.6048 49.25 10.1406 49.25ZM18.6406 45H1.64062V15H18.6406V45Z" fill="#1D1D1F"/>
<path d="M10.1406 48.625C10.7619 48.625 11.2656 48.1213 11.2656 47.5C11.2656 46.8787 10.7619 46.375 10.1406 46.375C9.5193 46.375 9.01562 46.8787 9.01562 47.5C9.01562 48.1213 9.5193 48.625 10.1406 48.625Z" fill="#1D1D1F"/>
</g>
<defs>
<clipPath id="clip0_2_3321">
<rect width="19" height="54" fill="white" transform="translate(0.640625)"/>
</clipPath>
</defs>
</svg>
