<svg width="23" height="54" viewBox="0 0 23 54" fill="none" xmlns="http://www.w3.org/2000/svg">
<g clip-path="url(#clip0_2_3328)">
<path d="M19.25 6H3.25C2.45435 6 1.69129 6.31607 1.12868 6.87868C0.56607 7.44129 0.25 8.20435 0.25 9L0.25 47C0.25 47.7957 0.56607 48.5587 1.12868 49.1213C1.69129 49.6839 2.45435 50 3.25 50H19.25C20.0456 50 20.8087 49.6839 21.3713 49.1213C21.9339 48.5587 22.25 47.7957 22.25 47V9C22.25 8.20435 21.9339 7.44129 21.3713 6.87868C20.8087 6.31607 20.0456 6 19.25 6ZM21.25 47C21.2494 47.5302 21.0385 48.0386 20.6635 48.4135C20.2886 48.7885 19.7802 48.9994 19.25 49H3.25C2.71975 48.9994 2.2114 48.7885 1.83646 48.4135C1.46152 48.0386 1.25061 47.5302 1.25 47V9C1.25061 8.46975 1.46152 7.9614 1.83646 7.58646C2.2114 7.21152 2.71975 7.00061 3.25 7H5.875C6.00002 6.99565 6.12166 7.04105 6.21325 7.12625C6.30484 7.21145 6.35891 7.3295 6.3636 7.4545V8.0709C6.37201 8.32302 6.47919 8.56174 6.66202 8.73555C6.84485 8.90936 7.08867 9.00434 7.3409 9H15.1591C15.4113 9.00434 15.6551 8.90936 15.838 8.73555C16.0208 8.56174 16.128 8.32302 16.1364 8.0709V7.4545C16.1411 7.3295 16.1952 7.21145 16.2868 7.12625C16.3783 7.04105 16.5 6.99565 16.625 7H19.25C19.7802 7.00061 20.2886 7.21152 20.6635 7.58646C21.0385 7.9614 21.2494 8.46975 21.25 9V47ZM14.003 7.5057C14.0023 7.57005 13.9825 7.63274 13.9462 7.68588C13.9099 7.73902 13.8587 7.78024 13.799 7.80435C13.7394 7.82845 13.6739 7.83437 13.6109 7.82136C13.5478 7.80835 13.4901 7.77699 13.4448 7.73122C13.3996 7.68545 13.3689 7.62732 13.3566 7.56415C13.3443 7.50098 13.351 7.43559 13.3758 7.37621C13.4006 7.31682 13.4424 7.2661 13.496 7.23042C13.5495 7.19474 13.6124 7.1757 13.6768 7.1757C13.7199 7.17595 13.7625 7.18468 13.8022 7.2014C13.8419 7.21812 13.878 7.2425 13.9082 7.27314C13.9385 7.30378 13.9625 7.34009 13.9788 7.38C13.995 7.4199 14.0033 7.46261 14.003 7.5057ZM12.8563 7.5057C12.8565 7.53834 12.8503 7.5707 12.8379 7.60093C12.8256 7.63117 12.8075 7.65868 12.7845 7.68189C12.7616 7.70511 12.7343 7.72358 12.7042 7.73624C12.6741 7.7489 12.6418 7.75552 12.6092 7.7557H10.6322C10.5659 7.7557 10.5023 7.72936 10.4554 7.68248C10.4085 7.63559 10.3822 7.572 10.3822 7.5057C10.3822 7.4394 10.4085 7.37581 10.4554 7.32892C10.5023 7.28204 10.5659 7.2557 10.6322 7.2557H12.6092C12.6751 7.2561 12.7382 7.28266 12.7845 7.32954C12.8309 7.37642 12.8567 7.43978 12.8563 7.5057Z" fill="#1D1D1F"/>
</g>
<defs>
<clipPath id="clip0_2_3328">
<rect width="22" height="54" fill="white" transform="translate(0.25)"/>
</clipPath>
</defs>
</svg>
