<svg width="59" height="54" viewBox="0 0 59 54" fill="none" xmlns="http://www.w3.org/2000/svg">
<g clip-path="url(#clip0_2_3375)">
<path d="M50.0674 47.5001C50.0674 47.7236 50.0011 47.9421 49.877 48.1279C49.7528 48.3137 49.5763 48.4586 49.3698 48.5441C49.1634 48.6296 48.9362 48.652 48.717 48.6084C48.4978 48.5648 48.2964 48.4572 48.1384 48.2991C47.9803 48.1411 47.8727 47.9397 47.8291 47.7205C47.7855 47.5013 47.8079 47.2741 47.8934 47.0677C47.979 46.8612 48.1238 46.6847 48.3096 46.5605C48.4954 46.4364 48.7139 46.3701 48.9374 46.3701C49.237 46.3704 49.5242 46.4896 49.7361 46.7014C49.9479 46.9133 50.0671 47.2005 50.0674 47.5001ZM58.4374 13.0001V47.0001C58.4374 47.7957 58.1213 48.5588 57.5587 49.1214C56.9961 49.684 56.2331 50.0001 55.4374 50.0001H42.4374C41.6915 49.9983 40.9734 49.7168 40.4249 49.2113C40.5834 49.0067 40.723 48.7882 40.8422 48.5585C41.0422 48.1624 41.1854 47.74 41.2675 47.3039C41.3712 46.689 41.416 46.0655 41.4013 45.4421V45.0001H57.4374V15.0001H41.4015V11.6049V11.3091C41.4002 10.9374 41.3871 10.5717 41.3592 10.2082C41.7026 10.0726 42.0682 10.002 42.4374 10.0001H55.4374C56.2331 10.0001 56.9961 10.3162 57.5587 10.8788C58.1213 11.4414 58.4374 12.2044 58.4374 13.0001ZM45.3124 12.5001C45.3124 12.4259 45.2904 12.3534 45.2492 12.2918C45.208 12.2301 45.1494 12.182 45.0809 12.1536C45.0124 12.1253 44.937 12.1178 44.8643 12.1323C44.7915 12.1468 44.7247 12.1825 44.6722 12.2349C44.6198 12.2874 44.5841 12.3542 44.5696 12.4269C44.5551 12.4997 44.5626 12.5751 44.591 12.6436C44.6193 12.7121 44.6674 12.7707 44.7291 12.8119C44.7907 12.8531 44.8632 12.8751 44.9374 12.8751C45.0369 12.8751 45.1322 12.8356 45.2025 12.7652C45.2729 12.6949 45.3124 12.5995 45.3124 12.5001ZM51.4374 12.5001C51.4372 12.4338 51.4108 12.3704 51.364 12.3235C51.3171 12.2767 51.2537 12.2503 51.1874 12.2501H46.6874C46.6211 12.2501 46.5575 12.2764 46.5106 12.3233C46.4637 12.3702 46.4374 12.4338 46.4374 12.5001C46.4374 12.5664 46.4637 12.63 46.5106 12.6769C46.5575 12.7238 46.6211 12.7501 46.6874 12.7501H51.1874C51.2537 12.7499 51.3171 12.7235 51.364 12.6767C51.4108 12.6298 51.4372 12.5663 51.4374 12.5001ZM50.6874 47.5001C50.6874 47.154 50.5848 46.8156 50.3925 46.5278C50.2002 46.2401 49.9269 46.0158 49.6071 45.8833C49.2873 45.7509 48.9355 45.7162 48.596 45.7837C48.2565 45.8512 47.9447 46.0179 47.7 46.2627C47.4552 46.5074 47.2886 46.8192 47.221 47.1587C47.1535 47.4982 47.1882 47.85 47.3206 48.1698C47.4531 48.4896 47.6774 48.7629 47.9652 48.9552C48.2529 49.1475 48.5913 49.2501 48.9374 49.2501C49.4015 49.2501 49.8467 49.0657 50.1748 48.7375C50.503 48.4093 50.6874 47.9642 50.6874 47.5001ZM6.36881 13.2549C6.10268 13.4238 5.80295 13.5327 5.49047 13.574C5.17799 13.6153 4.86026 13.5881 4.55938 13.4941C4.2585 13.4002 3.98169 13.2419 3.74821 13.0301C3.51473 12.8184 3.33019 12.5583 3.20741 12.268C3.09136 11.9609 3.04991 11.6307 3.08648 11.3045C3.12304 10.9782 3.23658 10.6654 3.41774 10.3916C3.59889 10.1178 3.84249 9.89103 4.12846 9.72985C4.41443 9.56866 4.73461 9.47772 5.06261 9.4645C5.52252 9.42247 5.98323 9.53589 6.37107 9.78663C6.7589 10.0374 7.05145 10.4109 7.20191 10.8475C7.35238 11.2842 7.35207 11.7586 7.20104 12.1951C7.05 12.6315 6.75697 13.0047 6.36881 13.2549ZM10.0463 12.0401C9.70043 12.0524 9.36314 12.1511 9.06519 12.3272C8.76724 12.5033 8.51811 12.7512 8.34051 13.0483C8.16291 13.3453 8.06249 13.6821 8.04842 14.0279C8.03434 14.3737 8.10705 14.7176 8.25991 15.0281C8.40343 15.2926 8.60007 15.5246 8.83749 15.7095C9.07491 15.8944 9.34798 16.0283 9.63958 16.1027C9.93118 16.1771 10.235 16.1904 10.532 16.1418C10.829 16.0932 11.1127 15.9837 11.3654 15.8203C11.7493 15.5673 12.0377 15.1935 12.185 14.758C12.3323 14.3225 12.3301 13.8503 12.1786 13.4163C12.0272 12.9822 11.7351 12.6111 11.3489 12.3619C10.9626 12.1126 10.5042 11.9993 10.0463 12.0401ZM5.14961 14.6201C4.81292 14.6193 4.4811 14.7006 4.18291 14.8569C3.88473 15.0133 3.62915 15.24 3.43833 15.5174C3.24751 15.7948 3.1272 16.1145 3.08781 16.4489C3.04843 16.7833 3.09116 17.1223 3.21231 17.4364C3.36827 17.7969 3.61958 18.1081 3.9392 18.3364C4.25883 18.5647 4.63467 18.7016 5.02628 18.7322C5.41788 18.7629 5.81043 18.6861 6.16168 18.5103C6.51293 18.3345 6.80958 18.0662 7.01971 17.7343C7.20894 17.4139 7.30812 17.0483 7.30677 16.6762C7.30541 16.3041 7.20357 15.9393 7.01201 15.6203C6.82045 15.3013 6.54627 15.04 6.21845 14.8639C5.89063 14.6879 5.52135 14.6036 5.14961 14.6201ZM19.0043 48.5589C19.1848 48.9068 19.4122 49.2283 19.6801 49.5143C19.3581 49.6658 19.0185 49.7767 18.6691 49.8443C18.2711 49.9162 17.8679 49.9559 17.4635 49.9631C17.0922 49.9746 16.5998 49.9731 16.2091 49.9731H6.14911H5.73311C5.62251 49.9731 5.51251 49.9727 5.40311 49.9719C4.82888 49.982 4.25494 49.9394 3.68851 49.8445C3.30119 49.7724 2.92581 49.6466 2.57321 49.4708C1.87519 49.1202 1.30709 48.5562 0.951409 47.8608C0.774329 47.5114 0.647572 47.1387 0.574909 46.7538C0.473156 46.1375 0.42983 45.5129 0.445509 44.8884C0.445509 44.7802 0.445509 44.6712 0.445509 44.5615V12.1885C0.445509 12.0786 0.445509 11.9696 0.445509 11.8615C0.42997 11.237 0.473429 10.6124 0.575309 9.996C0.648004 9.61113 0.774758 9.23847 0.951809 8.88909C1.30744 8.19362 1.87555 7.62964 2.57361 7.27909C2.9262 7.10328 3.30158 6.97747 3.68891 6.90529C4.08699 6.83335 4.49024 6.79366 4.89471 6.78659C5.26601 6.77509 5.75841 6.7766 6.14911 6.7766H16.2091H16.6251C16.7351 6.7766 16.8451 6.77659 16.9545 6.77779C17.5287 6.76766 18.1027 6.8103 18.6691 6.90519C19.0185 6.97279 19.3581 7.08364 19.6801 7.23519C19.4122 7.52134 19.1848 7.84291 19.0043 8.19089C18.8042 8.58702 18.661 9.00937 18.5788 9.4455C18.4752 10.0605 18.4305 10.684 18.4452 11.3075V11.6042V45.1442V45.4392C18.4304 46.0632 18.4751 46.6872 18.5788 47.3027C18.6608 47.7394 18.804 48.1623 19.0043 48.5589ZM12.8243 12.5282C12.8243 12.2489 12.8243 12.0547 12.8238 11.8921C12.8238 11.7321 12.8218 11.5999 12.8177 11.4785C12.8122 11.2402 12.7854 11.0028 12.7377 10.7692C12.6864 10.5254 12.6018 10.2899 12.4863 10.0692C12.2457 9.61315 11.8728 9.24049 11.4166 9.00009C11.1959 8.88457 10.9604 8.79998 10.7166 8.74869C10.4831 8.70084 10.2457 8.67406 10.0074 8.66869C9.88611 8.66449 9.75351 8.66299 9.59361 8.6624C9.43121 8.6618 9.23691 8.6624 8.95761 8.6624H6.21841C5.93911 8.6624 5.74481 8.6624 5.58221 8.6624C5.42221 8.66299 5.28991 8.66449 5.16861 8.66869C4.93002 8.67404 4.6924 8.70081 4.45861 8.74869C4.21521 8.80002 3.98003 8.88462 3.75971 9.00009C3.30351 9.24077 2.93073 9.61376 2.69031 10.0701C2.57482 10.2908 2.49023 10.5263 2.43891 10.7701C2.39105 11.0037 2.36427 11.241 2.35891 11.4794C2.35451 11.6008 2.35331 11.7332 2.35261 11.893V12.5291V15.6751V16.3111C2.35331 16.4711 2.35451 16.6033 2.35891 16.7248C2.36428 16.9631 2.39105 17.2005 2.43891 17.434C2.49021 17.6778 2.5748 17.9133 2.69031 18.134C2.93079 18.5901 3.30357 18.9629 3.75971 19.2033C3.98017 19.3189 4.21552 19.4035 4.45911 19.4547C4.6929 19.5026 4.93052 19.5293 5.16911 19.5347C5.29041 19.5389 5.42281 19.5403 5.58271 19.541C5.74531 19.5416 5.93961 19.541 6.21891 19.541H8.95891H9.59491C9.75491 19.5403 9.88741 19.5389 10.0087 19.5347C10.247 19.5293 10.4844 19.5025 10.7179 19.4547C10.9617 19.4035 11.1972 19.3189 11.4179 19.2033C11.874 18.9629 12.2468 18.5901 12.4873 18.134C12.6028 17.9133 12.6874 17.6778 12.7387 17.434C12.7864 17.2004 12.8132 16.9631 12.8187 16.7248C12.8228 16.6033 12.8243 16.471 12.8248 16.3111C12.8253 16.1486 12.8253 15.9543 12.8253 15.6751L12.8243 12.5282ZM20.1666 48.5482C20.0648 48.4078 19.9743 48.2597 19.8958 48.1051C19.8168 47.9496 19.7495 47.7885 19.6944 47.6231C19.7495 47.7886 19.8168 47.9497 19.8958 48.1052C19.9742 48.2597 20.0646 48.4078 20.1662 48.5481L20.1666 48.5482ZM24.3019 7.75009H24.4193H24.5285H35.328H35.6967L35.9848 7.75109C36.434 7.7425 36.8831 7.77453 37.3266 7.8468C37.5807 7.89376 37.8269 7.97623 38.058 8.09179C38.4924 8.31156 38.8451 8.66439 39.0648 9.09879C39.1804 9.32974 39.2628 9.57583 39.3097 9.8298C39.3874 10.3213 39.4197 10.819 39.4062 11.3165V11.6047V44.9201V45.4348C39.4197 45.9317 39.3874 46.4287 39.3097 46.9197C39.2628 47.1738 39.1803 47.4201 39.0646 47.6512C38.8448 48.0857 38.4919 48.4386 38.0574 48.6583C37.8265 48.7738 37.5805 48.8562 37.3266 48.9031C37.0252 48.9575 36.7198 48.9871 36.4136 48.9916C36.1606 48.9995 35.8425 49.0001 35.5536 49.0001H35.4374H35.3282H24.5285H24.1585L23.8714 48.9991C23.422 49.0077 22.9727 48.9757 22.5291 48.9033C22.2753 48.8564 22.0293 48.774 21.7984 48.6585C21.3639 48.4388 21.011 48.0859 20.7913 47.6514C20.6758 47.4204 20.5934 47.1744 20.5465 46.9204C20.4686 46.43 20.4363 45.9335 20.45 45.4372V45.1455V11.6055V11.3155C20.4363 10.8184 20.4687 10.3212 20.5468 9.83009C20.5937 9.57598 20.6761 9.32973 20.7916 9.0986C21.0115 8.66452 21.3641 8.31192 21.7982 8.09209C22.0293 7.97657 22.2754 7.8941 22.5294 7.8471C22.8308 7.79271 23.1362 7.76311 23.4425 7.75859C23.6955 7.75069 24.0136 7.75009 24.3019 7.75009ZM24.3019 6.75009C24.0031 6.75009 23.6735 6.75089 23.4119 6.75909C23.0514 6.76541 22.6921 6.80103 22.3374 6.86559C21.9923 6.93044 21.658 7.0433 21.3442 7.20089C20.7218 7.51671 20.2161 8.02256 19.9005 8.6451C19.743 8.95886 19.6301 9.29313 19.5653 9.63819C19.4747 10.1912 19.4362 10.7515 19.4503 11.3117C19.4499 11.4087 19.4499 11.5064 19.4503 11.6049V45.1449V45.4382C19.4362 45.9984 19.4747 46.5586 19.5653 47.1116C19.6301 47.4567 19.7429 47.7909 19.9005 48.1047C20.2162 48.7273 20.722 49.2332 21.3446 49.5489C21.6584 49.7065 21.9927 49.8194 22.3378 49.8842C22.8421 49.9693 23.3532 50.0076 23.8646 49.9985C23.9618 49.9991 24.0596 49.9994 24.1579 49.9995H24.5285H35.328H35.5543C35.8532 49.9995 36.183 49.9987 36.445 49.9905C36.8052 49.9841 37.1643 49.9485 37.5187 49.884C37.8637 49.8193 38.198 49.7064 38.5116 49.5487C39.1344 49.2331 39.6403 48.7272 39.956 48.1045C40.1136 47.7907 40.2264 47.4565 40.2912 47.1114C40.3817 46.5584 40.4202 45.9982 40.4062 45.438V44.9208V11.6049C40.4062 11.5064 40.4062 11.4086 40.4062 11.3117C40.4202 10.7515 40.3817 10.1912 40.2912 9.63819C40.2264 9.29313 40.1136 8.95886 39.956 8.6451C39.6403 8.02239 39.1344 7.51651 38.5116 7.20089C38.1979 7.04325 37.8637 6.93039 37.5187 6.86559C37.0144 6.78052 36.5032 6.74226 35.9918 6.7513C35.8947 6.7507 35.7969 6.75036 35.6986 6.75029H35.328H24.5285H24.3019V6.75009ZM32.0312 8.2601H27.8585C27.6178 8.26261 27.3878 8.35999 27.2185 8.53108C27.0492 8.70217 26.9543 8.93315 26.9543 9.17384C26.9543 9.41454 27.0492 9.64552 27.2185 9.81661C27.3878 9.9877 27.6178 10.0851 27.8585 10.0876H32.0312C32.152 10.0889 32.2719 10.0662 32.3838 10.0208C32.4958 9.97545 32.5977 9.90834 32.6835 9.82337C32.7694 9.73839 32.8376 9.63724 32.8841 9.52575C32.9306 9.41426 32.9546 9.29465 32.9546 9.17384C32.9546 9.05304 32.9306 8.93343 32.8841 8.82194C32.8376 8.71045 32.7694 8.6093 32.6835 8.52432C32.5977 8.43935 32.4958 8.37224 32.3838 8.32689C32.2719 8.28153 32.152 8.25883 32.0312 8.2601ZM32.0834 9.6238C31.9944 9.6238 31.9074 9.5974 31.8334 9.54796C31.7594 9.49851 31.7017 9.42823 31.6677 9.346C31.6336 9.26378 31.6247 9.1733 31.6421 9.086C31.6594 8.99871 31.7023 8.91853 31.7652 8.8556C31.8281 8.79266 31.9083 8.7498 31.9956 8.73244C32.0829 8.71508 32.1734 8.72399 32.2556 8.75805C32.3378 8.79211 32.4081 8.84979 32.4576 8.92379C32.507 8.99779 32.5334 9.08479 32.5334 9.1738C32.5334 9.2329 32.5218 9.29143 32.4992 9.34603C32.4766 9.40064 32.4434 9.45026 32.4016 9.49206C32.3599 9.53385 32.3102 9.56701 32.2556 9.58963C32.201 9.61225 32.1425 9.6239 32.0834 9.6239V9.6238Z" fill="#1D1D1F"/>
</g>
<defs>
<clipPath id="clip0_2_3375">
<rect width="58" height="54" fill="white" transform="translate(0.4375)"/>
</clipPath>
</defs>
</svg>
