<svg width="41" height="54" viewBox="0 0 41 54" fill="none" xmlns="http://www.w3.org/2000/svg">
<g clip-path="url(#clip0_2_3353)">
<path d="M24.6952 5.09658C24.3445 4.40428 23.7821 3.84186 23.0898 3.49108C22.7411 3.31584 22.3696 3.19041 21.986 3.11848C21.5921 3.04684 21.193 3.00728 20.7926 3.00018C20.425 2.98878 19.9379 3.00018 19.551 3.00018H6.82732C6.66232 3.00018 6.49972 3.00018 6.33832 3.00068C5.72548 2.98281 5.11232 3.02225 4.50682 3.11848C4.12321 3.19048 3.7516 3.3159 3.40282 3.49108C2.71085 3.84217 2.14869 4.40451 1.79782 5.09658C1.6227 5.44525 1.49728 5.81672 1.42522 6.20018C1.36484 6.52419 1.32808 6.85215 1.31522 7.18148C1.29962 7.50668 1.29762 7.85918 1.29712 8.19428V8.63518V44.3512C1.29712 44.5001 1.29712 44.647 1.29712 44.7921C1.29712 45.1272 1.29962 45.4797 1.31522 45.805C1.32809 46.1343 1.36485 46.4623 1.42522 46.7863C1.49728 47.1698 1.6227 47.5414 1.79782 47.8902C2.14874 48.5824 2.71107 49.1448 3.40322 49.4958C3.752 49.6709 4.12362 49.7963 4.50722 49.8683C4.90116 49.94 5.30027 49.9796 5.70062 49.9868C6.06802 49.9982 6.55532 49.9968 6.94232 49.9968C11.6633 49.9968 13.2879 50.0002 18.0088 50.0002C17.8905 49.9002 17.7888 49.7617 17.6388 49.6379C17.4415 49.4326 17.2628 49.2102 17.1047 48.9734C16.9122 48.6931 16.7617 48.3863 16.658 48.0625C16.5531 47.7302 16.472 47.3908 16.4153 47.047C16.3594 46.7495 16.3256 46.4482 16.3142 46.1457C16.2995 45.8468 16.2976 45.5233 16.2971 45.2157C16.2971 45.081 16.2971 44.9451 16.2971 44.8071V11.1934C16.2971 11.0554 16.2971 10.9196 16.2971 10.785C16.2971 10.4772 16.2995 10.1536 16.3142 9.85498C16.3259 9.55246 16.3597 9.25119 16.4153 8.95358C16.4815 8.60074 16.5968 8.25894 16.758 7.93818C17.0807 7.30138 17.598 6.78403 18.2348 6.46128C18.5557 6.30009 18.8976 6.18473 19.2505 6.11858C19.8017 6.02745 20.3602 5.98811 20.9187 6.00108C21.0798 6.00018 21.2428 6.00018 21.4084 6.00018H25.1619M11.6318 9.68098C11.6318 9.94488 11.6318 10.1286 11.6313 10.2822C11.6308 10.4332 11.6293 10.5583 11.6254 10.6732C11.6204 10.8983 11.595 11.1226 11.5497 11.3432C11.5015 11.5735 11.4216 11.796 11.3122 12.0044C11.0849 12.4355 10.7326 12.7879 10.3014 13.0152C10.093 13.1244 9.87056 13.2043 9.64032 13.2528C9.4197 13.298 9.19547 13.3233 8.97032 13.3284C8.85532 13.3324 8.73032 13.3338 8.57922 13.3342C8.42562 13.3349 8.24182 13.3348 7.97792 13.3348H6.61612C6.35222 13.3348 6.16842 13.3348 6.01482 13.3342C5.86372 13.3342 5.73872 13.3324 5.62372 13.3284C5.39857 13.3233 5.17434 13.298 4.95372 13.2528C4.72348 13.2043 4.50102 13.1244 4.29262 13.0152C3.86146 12.7879 3.50911 12.4355 3.28182 12.0044C3.17248 11.796 3.09255 11.5735 3.04432 11.3432C2.99902 11.1226 2.97368 10.8983 2.96862 10.6732C2.96472 10.5583 2.96322 10.4332 2.96272 10.2822C2.96222 10.1285 2.96222 9.94488 2.96222 9.68098V8.31938C2.96222 8.05538 2.96222 7.87178 2.96272 7.71818C2.96272 7.56698 2.96472 7.44188 2.96862 7.32708C2.97369 7.10193 2.99902 6.87769 3.04432 6.65708C3.0927 6.42681 3.17262 6.20431 3.28182 5.99588C3.50902 5.56469 3.86121 5.21222 4.29222 4.98468C4.50062 4.87548 4.72308 4.79553 4.95332 4.74708C5.17394 4.70187 5.39817 4.67657 5.62332 4.67148C5.73832 4.66748 5.86332 4.66618 6.01442 4.66558H6.61572H7.97752H8.57882C8.72992 4.66618 8.85492 4.66748 8.96972 4.67148C9.19507 4.67653 9.4195 4.70183 9.64032 4.74708C9.87056 4.79553 10.093 4.87548 10.3014 4.98468C10.7325 5.21205 11.0849 5.56438 11.3122 5.99548C11.4215 6.20386 11.5015 6.42637 11.5497 6.65668C11.595 6.87729 11.6204 7.10153 11.6254 7.32668C11.6293 7.44158 11.6308 7.56668 11.6313 7.71778C11.6318 7.87148 11.6318 8.05508 11.6318 8.31898V9.68098ZM36.2968 24.3082V45.6921C36.2624 46.0693 36.081 46.4178 35.7919 46.6625C35.5028 46.9073 35.1291 47.0285 34.7514 47.0002H21.8422C21.4645 47.0285 21.0908 46.9073 20.8017 46.6625C20.5126 46.4178 20.3313 46.0693 20.2968 45.6921V24.3133C20.3313 23.9347 20.5133 23.5848 20.8035 23.3392C21.0936 23.0935 21.4687 22.9718 21.8478 23.0002H34.7516C35.1293 22.9718 35.503 23.0931 35.7921 23.3378C36.0811 23.5825 36.2624 23.931 36.2968 24.3082ZM39.2968 11.8216C39.2963 11.5138 39.2946 11.1902 39.2802 10.8916C39.2683 10.5891 39.2344 10.2878 39.1788 9.99018C39.1127 9.63734 38.9973 9.29554 38.8361 8.97478C38.5132 8.33814 37.996 7.82088 37.3593 7.49798C37.0385 7.33669 36.6966 7.22129 36.3436 7.15518C35.9813 7.08917 35.6142 7.05271 35.246 7.04618C34.9078 7.03618 34.4596 7.03698 34.1036 7.03698H22.3836C22.218 7.03698 22.055 7.03698 21.8936 7.03778C21.3351 7.02473 20.7766 7.06404 20.2254 7.15518C19.8725 7.22132 19.5306 7.33671 19.2097 7.49798C18.5729 7.82058 18.0556 8.33784 17.7328 8.97458C17.5716 9.2954 17.4562 9.63727 17.3901 9.99018C17.3345 10.2878 17.3007 10.5891 17.289 10.8916C17.2743 11.1904 17.2975 11.514 17.297 11.8216V12.2301V44.8069V45.2155C17.297 45.5233 17.2743 45.8468 17.289 46.1455C17.3007 46.448 17.3345 46.7492 17.3901 47.0468C17.4562 47.3997 17.5716 47.7415 17.7328 48.0623C18.0555 48.6991 18.5728 49.2164 19.2096 49.5392C19.5305 49.7003 19.8724 49.8156 20.2253 49.8819C20.5877 49.9479 20.9549 49.9844 21.3232 49.9908C21.6611 50.0013 22.1093 49.9999 22.4653 49.9999H34.1853H34.6753C35.2337 50.0128 35.7921 49.9735 36.3432 49.8824C36.6961 49.8162 37.038 49.7008 37.3589 49.5397C37.9955 49.2167 38.5128 48.6994 38.8357 48.0628C38.9969 47.742 39.1123 47.4002 39.1784 47.0473C39.234 46.7497 39.2679 46.4485 39.2798 46.146C39.2942 45.8471 39.2959 45.5236 39.2964 45.216C39.2964 45.0813 39.2964 44.9454 39.2964 44.8074V12.2302C39.2968 12.0921 39.2968 11.9563 39.2968 11.8216ZM18.9611 11.705C18.9618 11.5544 18.963 11.4297 18.9669 11.315C18.9719 11.0905 18.9971 10.867 19.0421 10.6471C19.0906 10.4177 19.1704 10.196 19.2792 9.98828C19.5054 9.55884 19.8563 9.20794 20.2858 8.98178C20.4935 8.87296 20.7151 8.79327 20.9445 8.74498C21.1645 8.69993 21.388 8.67473 21.6125 8.66968C21.7267 8.66578 21.8513 8.66448 22.0019 8.66388C22.155 8.66328 22.3381 8.66388 22.601 8.66388H23.9926H24.4479C24.5944 8.66388 24.7563 8.66388 24.9033 8.66758C25.2072 8.66838 25.5097 8.70721 25.8039 8.78318C26.1386 8.87295 26.4501 9.03365 26.7172 9.25438C26.9843 9.47511 27.2008 9.75071 27.352 10.0625C27.4942 10.3634 27.5809 10.6874 27.6081 11.0191C27.6235 11.1772 27.6291 11.3355 27.6313 11.5191C27.6335 11.6869 27.633 11.9486 27.633 12.3042V13.6969C27.633 13.9597 27.633 14.1427 27.6325 14.2957C27.6318 14.4462 27.6305 14.5709 27.6266 14.6852C27.6215 14.9096 27.5963 15.1332 27.5512 15.3531C27.503 15.5825 27.4234 15.8042 27.3146 16.0119C27.0881 16.4414 26.737 16.7924 26.3075 17.0189C26.0999 17.1277 25.8783 17.2073 25.6489 17.2556C25.429 17.3006 25.2054 17.3258 24.9809 17.3308C24.8666 17.3348 24.7419 17.3362 24.5915 17.3367C24.4382 17.3373 24.2553 17.3367 23.9924 17.3367H22.601C22.2453 17.3367 21.9836 17.3367 21.8159 17.335C21.6323 17.3327 21.4741 17.3271 21.3159 17.3118C20.9842 17.2848 20.6601 17.198 20.3593 17.0556C20.1172 16.9383 19.8964 16.7814 19.706 16.5912C19.4066 16.2906 19.1908 15.917 19.08 15.5075C19.0041 15.2133 18.9652 14.9107 18.9643 14.6069C18.9606 14.46 18.9606 14.2981 18.9606 14.1515C18.9606 13.9999 18.9606 13.8486 18.9606 13.6965V12.3038C18.9606 12.0409 18.9604 11.8579 18.9609 11.705H18.9611ZM37.2968 45.6921C37.2638 46.3351 36.9775 46.939 36.5005 47.3715C36.0235 47.804 35.3946 48.0301 34.7514 48.0002H21.8422C21.199 48.0301 20.5701 47.804 20.0931 47.3715C19.6161 46.939 19.3298 46.3351 19.2968 45.6921V24.3133C19.3299 23.6688 19.6168 23.0637 20.0949 22.6302C20.5729 22.1967 21.2032 21.9702 21.8478 22.0002H34.7516C35.3948 21.9703 36.0236 22.1963 36.5006 22.6289C36.9775 23.0614 37.2638 23.6652 37.2968 24.3082V45.6921Z" fill="#1D1D1F"/>
</g>
<defs>
<clipPath id="clip0_2_3353">
<rect width="40" height="54" fill="white" transform="translate(0.296875)"/>
</clipPath>
</defs>
</svg>
