<svg width="1512" height="88" viewBox="0 0 1512 88" fill="none" xmlns="http://www.w3.org/2000/svg">
<rect width="1512" height="44" fill="black" fill-opacity="0.8"/>
<g clip-path="url(#clip0_2_3380)">
<path d="M279.073 17.5214C278.98 17.5937 277.348 18.5129 277.348 20.5578C277.348 22.9229 279.424 23.7595 279.486 23.7801C279.476 23.8317 279.155 24.9265 278.391 26.0419C277.71 27.0231 276.997 28.0042 275.912 28.0042C274.828 28.0042 274.549 27.3742 273.299 27.3742C272.081 27.3742 271.647 28.0249 270.655 28.0249C269.664 28.0249 268.972 27.116 268.177 26.0006C267.258 24.6889 266.514 22.6543 266.514 20.723C266.514 17.6246 268.528 15.9824 270.511 15.9824C271.564 15.9824 272.442 16.6744 273.103 16.6744C273.733 16.6744 274.714 15.9411 275.912 15.9411C276.367 15.9412 277.999 15.9826 279.073 17.5214ZM275.344 14.6296C275.84 14.0409 276.191 13.225 276.191 12.4091C276.191 12.2955 276.181 12.1819 276.16 12.0889C275.355 12.1199 274.394 12.626 273.816 13.2973C273.361 13.8137 272.938 14.6296 272.938 15.4559C272.938 15.5798 272.959 15.7038 272.969 15.7451C273.021 15.7554 273.103 15.7658 273.186 15.7658C273.909 15.7657 274.818 15.2803 275.344 14.6296Z" fill="white"/>
</g>
<g clip-path="url(#clip1_2_3380)">
<path fill-rule="evenodd" clip-rule="evenodd" d="M347.318 20.4627C348.32 20.4627 348.988 21.2007 349.011 22.3197H345.531C345.607 21.2007 346.31 20.4627 347.318 20.4627ZM350.072 23.1347V22.7477C350.072 20.7847 349.035 19.5717 347.33 19.5717C345.595 19.5717 344.482 20.8607 344.482 22.8477C344.482 24.8457 345.578 26.1107 347.33 26.1107C348.713 26.1107 349.697 25.4427 349.99 24.3647H348.982C348.718 24.9217 348.168 25.2207 347.353 25.2207C346.281 25.2207 345.584 24.4297 345.531 23.1817V23.1347H350.072ZM340.525 19.6837H341.485V20.6207H341.579C341.767 20.0057 342.493 19.5717 343.331 19.5717C343.495 19.5717 343.706 19.5837 343.835 19.6017V20.6087C343.753 20.5857 343.39 20.5507 343.191 20.5507C342.23 20.5507 341.532 21.6487 341.532 22.0857V25.9997H340.525V19.6837ZM336.255 25.2027C335.06 25.2027 334.386 24.3357 334.386 22.8417C334.386 21.3417 335.06 20.4807 336.255 20.4807C337.451 20.4807 338.125 21.3417 338.125 22.8417C338.125 24.3357 337.451 25.2027 336.255 25.2027ZM336.255 19.5717C334.457 19.5717 333.343 20.8087 333.343 22.8417C333.343 24.8687 334.457 26.1107 336.255 26.1107C338.054 26.1107 339.168 24.8687 339.168 22.8417C339.168 20.8087 338.054 19.5717 336.255 19.5717ZM330.777 18.0967V19.7317H332.184V20.5747H330.777V24.1497C330.777 24.8937 331.059 25.2097 331.715 25.2097C331.897 25.2097 331.996 25.2037 332.184 25.1867V26.0357C331.985 26.0707 331.791 26.0947 331.592 26.0947C330.291 26.0947 329.77 25.6137 329.77 24.4067V20.5747H328.75V19.7317H329.77V18.0967H330.777ZM322.674 23.7907C322.803 24.6757 323.647 25.2377 324.848 25.2377C325.985 25.2377 326.823 24.6227 326.823 23.7847C326.823 23.0647 326.296 22.6077 325.13 22.3147L324.046 22.0327C322.516 21.6467 321.854 20.9547 321.854 19.7537C321.854 18.3177 323.055 17.3457 324.842 17.3457C326.477 17.3457 327.696 18.3177 327.784 19.6837H326.723C326.577 18.8167 325.862 18.3007 324.807 18.3007C323.682 18.3007 322.938 18.8627 322.938 19.7187C322.938 20.3807 323.401 20.7617 324.567 21.0607L325.452 21.2947C327.204 21.7337 327.907 22.4137 327.907 23.6557C327.907 25.2087 326.682 26.1987 324.749 26.1987C322.956 26.1987 321.719 25.2497 321.608 23.7907H322.674Z" fill="white"/>
</g>
<g clip-path="url(#clip2_2_3380)">
<path d="M399.656 25.999V19.542H399.586L396.92 25.999H396.029L393.363 19.542H393.293V25.999H392.308V17.5439H393.533L396.427 24.5986H396.521L399.416 17.5439H400.64V25.999H399.656ZM402.172 24.2294C402.172 23.0985 403.004 22.4482 404.475 22.3603L406.297 22.249V21.6748C406.297 20.8955 405.811 20.4678 404.868 20.4678C404.112 20.4678 403.585 20.7549 403.444 21.253H402.424C402.559 20.2393 403.555 19.5714 404.903 19.5714C406.444 19.5714 407.305 20.3624 407.305 21.6749V25.9991H406.344V25.0673H406.251C405.84 25.7411 405.149 26.1103 404.305 26.1103C403.081 26.1103 402.172 25.3837 402.172 24.2294ZM406.297 23.6435V23.0634L404.598 23.1747C403.637 23.2392 403.215 23.5731 403.215 24.2059C403.215 24.8504 403.76 25.2254 404.493 25.2254C405.53 25.2255 406.297 24.5458 406.297 23.6435ZM413.255 21.6162C413.091 20.9892 412.535 20.4795 411.627 20.4795C410.49 20.4795 409.775 21.3877 409.775 22.8174C409.775 24.2764 410.502 25.2022 411.627 25.2022C412.476 25.2022 413.068 24.8096 413.255 24.0948H414.275C414.093 25.255 413.15 26.1104 411.632 26.1104C409.863 26.1104 408.732 24.8272 408.732 22.8174C408.732 20.8486 409.857 19.5713 411.626 19.5713C413.162 19.5713 414.099 20.4912 414.275 21.6162H413.255Z" fill="white"/>
</g>
<path fill-rule="evenodd" clip-rule="evenodd" d="M470.207 23.7006C470.207 24.6026 469.439 25.2826 468.402 25.2826C467.67 25.2826 467.125 24.9076 467.125 24.2626C467.125 23.6306 467.547 23.2966 468.508 23.2316L470.207 23.1206V23.7006ZM468.812 19.6286C467.465 19.6286 466.469 20.2966 466.334 21.3096H467.353C467.494 20.8116 468.021 20.5246 468.777 20.5246C469.721 20.5246 470.207 20.9526 470.207 21.7316V22.3056L468.385 22.4176C466.914 22.5056 466.082 23.1556 466.082 24.2866C466.082 25.4406 466.99 26.1676 468.215 26.1676C469.059 26.1676 469.75 25.7986 470.16 25.1246H470.254V26.0556H471.215V21.7316C471.215 20.4196 470.353 19.6286 468.812 19.6286ZM475.581 25.2036C474.426 25.2036 473.735 24.3186 473.735 22.8426C473.735 21.3716 474.432 20.4806 475.581 20.4806C476.723 20.4806 477.438 21.3946 477.438 22.8426C477.438 24.3016 476.729 25.2036 475.581 25.2036ZM477.415 17.1766V20.6796H477.327C476.969 19.9886 476.225 19.5726 475.346 19.5726C473.741 19.5726 472.692 20.8616 472.692 22.8426C472.692 24.8286 473.729 26.1116 475.346 26.1116C476.219 26.1116 476.969 25.6956 477.368 24.9926H477.461V26.0006H478.422V17.1766H477.415ZM462.021 22.0456H460.158V18.4826H462.021C463.246 18.4826 463.92 19.1216 463.92 20.2816C463.92 21.4006 463.223 22.0456 462.021 22.0456ZM462.297 17.5456H459.103V26.0006H460.158V22.9826H462.285C463.873 22.9826 465.004 21.8636 465.004 20.2816C465.004 18.6706 463.896 17.5456 462.297 17.5456ZM456.233 25.9996H457.241V19.6836H456.233V25.9996ZM456.034 17.7626C456.034 17.3756 456.35 17.0586 456.737 17.0586C457.124 17.0586 457.44 17.3756 457.44 17.7626C457.44 18.1486 457.124 18.4656 456.737 18.4656C456.35 18.4656 456.034 18.1486 456.034 17.7626Z" fill="white"/>
<path fill-rule="evenodd" clip-rule="evenodd" d="M552.713 22.3206H556.193C556.17 21.2016 555.502 20.4636 554.5 20.4636C553.492 20.4636 552.789 21.2016 552.713 22.3206ZM557.172 24.3656C556.879 25.4436 555.895 26.1116 554.512 26.1116C552.76 26.1116 551.664 24.8456 551.664 22.8476C551.664 20.8616 552.777 19.5726 554.512 19.5726C556.217 19.5726 557.254 20.7856 557.254 22.7486V23.1346H552.713V23.1816C552.766 24.4296 553.463 25.2206 554.535 25.2206C555.35 25.2206 555.901 24.9226 556.164 24.3656H557.172ZM544.89 19.6836H545.851V20.6796H545.945C546.261 19.9826 546.877 19.5726 547.843 19.5726C549.261 19.5726 550.052 20.4106 550.052 21.9106V26.0006H549.045V22.1566C549.045 21.0196 548.564 20.4806 547.556 20.4806C546.548 20.4806 545.898 21.1546 545.898 22.2616V26.0006H544.89V19.6836ZM542.391 22.8416C542.391 21.3416 541.717 20.4806 540.522 20.4806C539.326 20.4806 538.652 21.3416 538.652 22.8416C538.652 24.3366 539.326 25.2036 540.522 25.2036C541.717 25.2036 542.391 24.3366 542.391 22.8416ZM537.609 22.8416C537.609 20.8086 538.723 19.5726 540.522 19.5726C542.32 19.5726 543.434 20.8086 543.434 22.8416C543.434 24.8696 542.32 26.1116 540.522 26.1116C538.723 26.1116 537.609 24.8696 537.609 22.8416ZM530.973 17.1756H531.981V20.6796H532.074C532.391 19.9826 533.053 19.5726 534.02 19.5726C535.356 19.5726 536.199 20.4276 536.199 21.9106V26.0006H535.192V22.1566C535.192 21.0376 534.688 20.4806 533.733 20.4806C532.602 20.4806 531.981 21.1956 531.981 22.2616V26.0006H530.973V17.1756ZM524.958 22.0456H526.821C528.023 22.0456 528.72 21.4006 528.72 20.2816C528.72 19.1216 528.046 18.4826 526.821 18.4826H524.958V22.0456ZM527.097 17.5456C528.696 17.5456 529.804 18.6706 529.804 20.2816C529.804 21.8636 528.673 22.9826 527.085 22.9826H524.958V26.0006H523.903V17.5456H527.097ZM520.983 25.9996H521.991V19.6836H520.983V25.9996ZM520.783 17.7616C520.783 17.3756 521.1 17.0586 521.486 17.0586C521.873 17.0586 522.19 17.3756 522.19 17.7616C522.19 18.1486 521.873 18.4656 521.486 18.4656C521.1 18.4656 520.783 18.1486 520.783 17.7616Z" fill="white"/>
<path fill-rule="evenodd" clip-rule="evenodd" d="M627.732 17.1758H628.74V20.6798H628.834C629.15 19.9828 629.812 19.5718 630.779 19.5718C632.115 19.5718 632.959 20.4278 632.959 21.9098V25.9998H631.951V22.1558C631.951 21.0368 631.447 20.4808 630.492 20.4808C629.361 20.4808 628.74 21.1958 628.74 22.2618V25.9998H627.732V17.1758ZM625.312 21.6168C625.148 20.9898 624.591 20.4808 623.683 20.4808C622.546 20.4808 621.831 21.3888 621.831 22.8188C621.831 24.2778 622.558 25.2028 623.683 25.2028C624.532 25.2028 625.124 24.8108 625.312 24.0958H626.331C626.149 25.2558 625.206 26.1118 623.689 26.1118C621.919 26.1118 620.788 24.8278 620.788 22.8188C620.788 20.8498 621.913 19.5718 623.683 19.5718C625.218 19.5718 626.155 20.4918 626.331 21.6168H625.312ZM618.779 18.0488V19.6838H620.186V20.5278H618.779V24.1018C618.779 24.8458 619.061 25.1618 619.717 25.1618C619.899 25.1618 619.998 25.1558 620.186 25.1388V25.9888C619.986 26.0238 619.793 26.0468 619.594 26.0468C618.293 26.0468 617.772 25.5668 617.772 24.3598V20.5278H616.752V19.6838H617.772V18.0488H618.779ZM614.579 23.6448V23.0648L612.88 23.1758C611.919 23.2398 611.497 23.5738 611.497 24.2068C611.497 24.8518 612.042 25.2268 612.774 25.2268C613.812 25.2268 614.579 24.5468 614.579 23.6448ZM610.454 24.2308C610.454 23.0998 611.286 22.4488 612.757 22.3618L614.579 22.2498V21.6758C614.579 20.8968 614.093 20.4688 613.149 20.4688C612.394 20.4688 611.866 20.7558 611.726 21.2538H610.706C610.841 20.2398 611.837 19.5718 613.185 19.5718C614.726 19.5718 615.587 20.3638 615.587 21.6758V25.9998H614.626V25.0688H614.532C614.122 25.7418 613.431 26.1118 612.587 26.1118C611.362 26.1118 610.454 25.3848 610.454 24.2308ZM602.77 25.9998H601.774L599.471 17.5448H600.572L602.254 24.4178H602.324L604.217 17.5448H605.283L607.176 24.4178H607.246L608.928 17.5448H610.029L607.727 25.9998H606.731L604.785 19.3258H604.715L602.77 25.9998Z" fill="white"/>
<g clip-path="url(#clip3_2_3380)">
<path fill-rule="evenodd" clip-rule="evenodd" d="M686.207 19.6836H687.168V20.6206H687.262C687.449 20.0056 688.176 19.5726 689.014 19.5726C689.178 19.5726 689.389 19.5836 689.518 19.6016V20.6096C689.436 20.5856 689.072 20.5506 688.873 20.5506C687.912 20.5506 687.215 21.1956 687.215 22.0856V25.9996H686.207V19.6836ZM714.342 19.5726C715.666 19.5726 716.586 20.2286 716.721 21.2656H715.725C715.59 20.7616 715.098 20.4276 714.336 20.4276C713.586 20.4276 713 20.8086 713 21.3706C713 21.8046 713.352 22.0746 714.096 22.2556L715.069 22.4906C716.258 22.7776 716.832 23.2926 716.832 24.2016C716.832 25.3316 715.737 26.1116 714.301 26.1116C712.895 26.1116 711.928 25.4376 711.817 24.3886H712.854C713.024 24.9216 713.528 25.2616 714.336 25.2616C715.186 25.2616 715.795 24.8576 715.795 24.2776C715.795 23.8436 715.467 23.5506 714.793 23.3866L713.709 23.1226C712.526 22.8356 711.987 22.3266 711.987 21.4126C711.987 20.3636 713 19.5726 714.342 19.5726ZM707.677 25.2036C706.522 25.2036 705.831 24.3186 705.831 22.8416C705.831 21.3706 706.528 20.4806 707.677 20.4806C708.819 20.4806 709.534 21.3946 709.534 22.8416C709.534 24.3006 708.825 25.2036 707.677 25.2036ZM709.511 17.1756V20.6796H709.423C709.065 19.9886 708.321 19.5726 707.442 19.5726C705.837 19.5726 704.788 20.8616 704.788 22.8416C704.788 24.8286 705.825 26.1116 707.442 26.1116C708.315 26.1116 709.065 25.6956 709.464 24.9926H709.558V25.9996H710.519V17.1756H709.511ZM700.51 25.2036C699.315 25.2036 698.641 24.3356 698.641 22.8416C698.641 21.3416 699.315 20.4806 700.51 20.4806C701.706 20.4806 702.379 21.3416 702.379 22.8416C702.379 24.3356 701.706 25.2036 700.51 25.2036ZM700.51 19.5726C698.711 19.5726 697.598 20.8086 697.598 22.8416C697.598 24.8696 698.711 26.1116 700.51 26.1116C702.309 26.1116 703.422 24.8696 703.422 22.8416C703.422 20.8086 702.309 19.5726 700.51 19.5726ZM683.439 25.9996H684.447V19.6836H683.439V25.9996ZM683.24 17.7616C683.24 17.3746 683.557 17.0586 683.943 17.0586C684.33 17.0586 684.646 17.3746 684.646 17.7616C684.646 18.1486 684.33 18.4646 683.943 18.4646C683.557 18.4646 683.24 18.1486 683.24 17.7616ZM677.103 22.6836L678.427 18.9106H678.52L679.845 22.6836H677.103ZM678.995 17.5446H677.952L674.835 25.9996H675.942L676.792 23.5796H680.155L681.005 25.9996H682.112L678.995 17.5446ZM693.863 22.0446H691.999V18.4826H693.863C695.087 18.4826 695.761 19.1216 695.761 20.2816C695.761 21.4006 695.064 22.0446 693.863 22.0446ZM694.138 17.5446H690.945V25.9996H691.999V22.9826H694.126C695.714 22.9826 696.845 21.8636 696.845 20.2816C696.845 18.6696 695.738 17.5446 694.138 17.5446Z" fill="white"/>
</g>
<g clip-path="url(#clip4_2_3380)">
<path d="M762.61 26.0001V18.4942H759.885V17.545H766.389V18.4942H763.665V26.0001H762.61ZM770.341 26.0001L767.224 17.545H768.331L770.816 24.6348H770.91L773.394 17.545H774.501L771.384 26.0001H770.341ZM784.322 25.1563C783.602 25.7891 782.611 26.1583 781.586 26.1583C779.904 26.1583 778.727 25.1622 778.727 23.7442C778.727 22.7422 779.271 21.9805 780.402 21.3829C780.479 21.3477 780.637 21.2657 780.73 21.2188C779.951 20.3985 779.67 19.8536 779.67 19.2383C779.67 18.1543 780.59 17.3457 781.826 17.3457C783.074 17.3457 783.982 18.1426 783.982 19.25C783.982 20.1172 783.461 20.75 782.154 21.4355L784.269 23.7089C784.533 23.1816 784.668 22.4901 784.668 21.4355V21.289H785.652V21.4413C785.652 22.7538 785.418 23.7089 784.955 24.4237L786.426 26.0001H785.102L784.322 25.1563ZM779.781 23.6739C779.781 24.6231 780.549 25.2677 781.68 25.2677C782.447 25.2677 783.238 24.963 783.701 24.4767L781.311 21.8634C781.246 21.8868 781.094 21.963 781.012 22.004C780.197 22.4259 779.781 23.0118 779.781 23.6739ZM782.992 19.2853C782.992 18.6291 782.518 18.1837 781.832 18.1837C781.158 18.1837 780.678 18.6407 780.678 19.297C780.678 19.7658 780.918 20.1759 781.586 20.838C782.617 20.3106 782.992 19.8888 782.992 19.2853ZM796.51 26.0001V22.1505H791.869V26.0001H790.814V17.545H791.869V21.2012H796.51V17.545H797.564V26.0001H796.51ZM799.155 22.8419C799.155 20.8087 800.269 19.5724 802.067 19.5724C803.866 19.5724 804.979 20.8087 804.979 22.8419C804.979 24.8692 803.866 26.1114 802.067 26.1114C800.269 26.1114 799.155 24.8692 799.155 22.8419ZM803.936 22.8419C803.936 21.3419 803.263 20.4806 802.067 20.4806C800.872 20.4806 800.198 21.3419 800.198 22.8419C800.198 24.336 800.872 25.2032 802.067 25.2032C803.263 25.2032 803.936 24.336 803.936 22.8419ZM806.442 19.6837H807.403V20.6798H807.497C807.784 19.9767 808.416 19.5724 809.26 19.5724C810.116 19.5724 810.713 20.0236 811.006 20.6798H811.1C811.44 20.0118 812.161 19.5724 813.034 19.5724C814.323 19.5724 815.044 20.3107 815.044 21.6349V26.0001H814.036V21.8692C814.036 20.9376 813.596 20.4805 812.706 20.4805C811.827 20.4805 811.241 21.1367 811.241 21.9395V26.0001H810.233V21.711C810.233 20.961 809.712 20.4805 808.915 20.4805C808.088 20.4805 807.45 21.1953 807.45 22.086V26.0001H806.442V19.6837H806.442ZM821.955 24.3653C821.662 25.4434 820.677 26.1114 819.294 26.1114C817.542 26.1114 816.447 24.8458 816.447 22.8477C816.447 20.8614 817.56 19.5723 819.294 19.5723C820.999 19.5723 822.037 20.7852 822.037 22.7481V23.1348H817.496V23.1817C817.548 24.4297 818.246 25.2208 819.318 25.2208C820.132 25.2208 820.683 24.922 820.947 24.3653H821.955ZM817.496 22.3204H820.976C820.953 21.2013 820.285 20.463 819.283 20.463C818.275 20.463 817.572 21.2013 817.496 22.3204Z" fill="white"/>
</g>
<g clip-path="url(#clip5_2_3380)">
<path d="M872.874 21.7699C872.874 24.4699 871.414 26.1999 868.994 26.1999C866.564 26.1999 865.114 24.4799 865.114 21.7699C865.114 19.0499 866.604 17.3499 868.994 17.3499C871.394 17.3399 872.874 19.0599 872.874 21.7699ZM866.204 21.7699C866.204 23.8699 867.244 25.2299 868.994 25.2299C870.724 25.2299 871.784 23.8699 871.784 21.7699C871.784 19.6499 870.714 18.3199 868.994 18.3199C867.274 18.3199 866.204 19.6499 866.204 21.7699ZM874.574 19.6799H875.534V20.6799H875.624C875.944 19.9799 876.554 19.5699 877.524 19.5699C878.944 19.5699 879.734 20.4099 879.734 21.9099V25.9999H878.724V22.1599C878.724 21.0199 878.244 20.4799 877.234 20.4799C876.224 20.4799 875.574 21.1499 875.574 22.2599V25.9999H874.564V19.6799H874.574ZM881.634 17.1699H882.644V25.9999H881.634V17.1699ZM884.684 28.2499V27.3899C884.804 27.4099 884.964 27.4199 885.104 27.4199C885.684 27.4199 886.004 27.1399 886.264 26.3799L886.384 25.9999L884.044 19.6799H885.134L886.864 24.8799H886.954L888.684 19.6799H889.754L887.284 26.3799C886.744 27.8399 886.244 28.2799 885.124 28.2799C885.004 28.2799 884.824 28.2699 884.684 28.2499ZM894.184 22.8399C894.184 20.8099 895.294 19.5699 897.094 19.5699C898.894 19.5699 900.004 20.8099 900.004 22.8399C900.004 24.8699 898.894 26.1099 897.094 26.1099C895.294 26.1099 894.184 24.8699 894.184 22.8399ZM898.964 22.8399C898.964 21.3399 898.294 20.4799 897.094 20.4799C895.894 20.4799 895.224 21.3399 895.224 22.8399C895.224 24.3299 895.894 25.1999 897.094 25.1999C898.294 25.1999 898.964 24.3299 898.964 22.8399ZM901.594 19.6799H902.554V20.6799H902.644C902.964 19.9799 903.574 19.5699 904.544 19.5699C905.964 19.5699 906.754 20.4099 906.754 21.9099V25.9999H905.744V22.1599C905.744 21.0199 905.264 20.4799 904.254 20.4799C903.244 20.4799 902.594 21.1499 902.594 22.2599V25.9999H901.584L901.594 19.6799ZM916.754 23.5799H913.394L912.544 25.9999H911.434L914.554 17.5399H915.594L918.714 25.9999H917.604L916.754 23.5799ZM913.704 22.6799H916.444L915.124 18.9099H915.034L913.704 22.6799ZM925.794 22.8399C925.794 24.8099 924.744 26.1099 923.144 26.1099C922.244 26.1099 921.514 25.7199 921.174 25.0499H921.084V28.1099H920.074V19.6799H921.034V20.7299H921.124C921.524 19.9999 922.284 19.5599 923.144 19.5599C924.754 19.5699 925.794 20.8499 925.794 22.8399ZM924.754 22.8399C924.754 21.3599 924.064 20.4799 922.904 20.4799C921.764 20.4799 921.044 21.3899 921.044 22.8399C921.044 24.2899 921.764 25.1999 922.904 25.1999C924.064 25.1999 924.754 24.3199 924.754 22.8399ZM933.104 22.8399C933.104 24.8099 932.054 26.1099 930.454 26.1099C929.554 26.1099 928.824 25.7199 928.484 25.0499H928.384V28.1099H927.374V19.6799H928.334V20.7299H928.424C928.824 19.9999 929.584 19.5599 930.444 19.5599C932.064 19.5699 933.104 20.8499 933.104 22.8399ZM932.064 22.8399C932.064 21.3599 931.374 20.4799 930.214 20.4799C929.074 20.4799 928.354 21.3899 928.354 22.8399C928.354 24.2899 929.074 25.1999 930.214 25.1999C931.374 25.1999 932.064 24.3199 932.064 22.8399ZM934.754 17.1699H935.764V25.9999H934.754V17.1699ZM942.904 24.3599C942.614 25.4399 941.624 26.1099 940.244 26.1099C938.494 26.1099 937.394 24.8399 937.394 22.8499C937.394 20.8599 938.504 19.5699 940.244 19.5699C941.954 19.5699 942.984 20.7799 942.984 22.7499V23.1399H938.444V23.1899C938.494 24.4399 939.194 25.2299 940.264 25.2299C941.074 25.2299 941.634 24.9299 941.894 24.3699L942.904 24.3599ZM938.444 22.3199H941.924C941.904 21.1999 941.234 20.4599 940.234 20.4599C939.224 20.4599 938.524 21.1999 938.444 22.3199Z" fill="white"/>
</g>
<g clip-path="url(#clip6_2_3380)">
<path d="M990.387 23.5713H987.024L986.174 25.9912H985.067L988.184 17.5361H989.227L992.344 25.9912H991.237L990.387 23.5713ZM987.334 22.6748H990.076L988.752 18.9014H988.658L987.334 22.6748ZM997.433 21.6084C997.269 20.9814 996.712 20.4717 995.804 20.4717C994.667 20.4717 993.952 21.3799 993.952 22.8096C993.952 24.2686 994.679 25.1944 995.804 25.1944C996.654 25.1944 997.245 24.8018 997.433 24.087H998.452C998.271 25.2472 997.327 26.1026 995.81 26.1026C994.04 26.1026 992.909 24.8194 992.909 22.8096C992.909 20.8408 994.034 19.5635 995.804 19.5635C997.339 19.5635 998.277 20.4834 998.452 21.6084H997.433ZM1004.03 21.6084C1003.86 20.9814 1003.31 20.4717 1002.4 20.4717C1001.26 20.4717 1000.55 21.3799 1000.55 22.8096C1000.55 24.2686 1001.27 25.1944 1002.4 25.1944C1003.25 25.1944 1003.84 24.8018 1004.03 24.087H1005.05C1004.87 25.2472 1003.92 26.1026 1002.4 26.1026C1000.63 26.1026 999.504 24.8194 999.504 22.8096C999.504 20.8408 1000.63 19.5635 1002.4 19.5635C1003.93 19.5635 1004.87 20.4834 1005.05 21.6084H1004.03ZM1011.61 24.3564C1011.31 25.4345 1010.33 26.1025 1008.95 26.1025C1007.19 26.1025 1006.1 24.8369 1006.1 22.8388C1006.1 20.8525 1007.21 19.5634 1008.95 19.5634C1010.65 19.5634 1011.69 20.7763 1011.69 22.7392V23.1259H1007.15V23.1728C1007.2 24.4208 1007.9 25.2119 1008.97 25.2119C1009.78 25.2119 1010.34 24.9131 1010.6 24.3564H1011.61ZM1007.15 22.3115H1010.63C1010.61 21.1924 1009.94 20.4541 1008.94 20.4541C1007.93 20.4541 1007.22 21.1924 1007.15 22.3115ZM1015.36 19.5635C1016.68 19.5635 1017.6 20.2197 1017.74 21.2569H1016.74C1016.61 20.753 1016.12 20.419 1015.35 20.419C1014.6 20.419 1014.02 20.7999 1014.02 21.3624C1014.02 21.796 1014.37 22.0655 1015.11 22.2472L1016.09 22.4816C1017.28 22.7687 1017.85 23.2843 1017.85 24.1925C1017.85 25.3234 1016.75 26.1027 1015.32 26.1027C1013.91 26.1027 1012.95 25.4289 1012.83 24.38H1013.87C1014.04 24.9132 1014.55 25.253 1015.35 25.253C1016.2 25.253 1016.81 24.8487 1016.81 24.2686C1016.81 23.835 1016.49 23.542 1015.81 23.378L1014.73 23.1143C1013.54 22.8272 1013 22.3174 1013 21.4034C1013 20.3545 1014.02 19.5635 1015.36 19.5635ZM1021.4 19.5635C1022.73 19.5635 1023.65 20.2197 1023.78 21.2569H1022.79C1022.65 20.753 1022.16 20.419 1021.4 20.419C1020.65 20.419 1020.06 20.7999 1020.06 21.3624C1020.06 21.796 1020.41 22.0655 1021.16 22.2472L1022.13 22.4816C1023.32 22.7687 1023.89 23.2843 1023.89 24.1925C1023.89 25.3234 1022.8 26.1027 1021.36 26.1027C1019.96 26.1027 1018.99 25.4289 1018.88 24.38H1019.92C1020.09 24.9132 1020.59 25.253 1021.4 25.253C1022.25 25.253 1022.86 24.8487 1022.86 24.2686C1022.86 23.835 1022.53 23.542 1021.86 23.378L1020.77 23.1143C1019.59 22.8272 1019.05 22.3174 1019.05 21.4034C1019.05 20.3545 1020.06 19.5635 1021.4 19.5635ZM1025.04 22.833C1025.04 20.7998 1026.15 19.5635 1027.95 19.5635C1029.75 19.5635 1030.86 20.7998 1030.86 22.833C1030.86 24.8603 1029.75 26.1025 1027.95 26.1025C1026.15 26.1025 1025.04 24.8603 1025.04 22.833ZM1029.82 22.833C1029.82 21.333 1029.15 20.4717 1027.95 20.4717C1026.76 20.4717 1026.08 21.333 1026.08 22.833C1026.08 24.3271 1026.76 25.1943 1027.95 25.1943C1029.15 25.1943 1029.82 24.3271 1029.82 22.833ZM1032.33 19.6748H1033.29V20.6123H1033.38C1033.57 19.9971 1034.3 19.5635 1035.13 19.5635C1035.3 19.5635 1035.51 19.5752 1035.64 19.5928V20.6006C1035.56 20.5772 1035.19 20.542 1034.99 20.542C1034.03 20.542 1033.33 21.1865 1033.33 22.0772V25.9913H1032.33V19.6748H1032.33ZM1036.6 17.7529C1036.6 17.3662 1036.92 17.0498 1037.3 17.0498C1037.69 17.0498 1038.01 17.3662 1038.01 17.7529C1038.01 18.1396 1037.69 18.456 1037.3 18.456C1036.92 18.456 1036.6 18.1396 1036.6 17.7529ZM1036.8 19.6748H1037.81V25.9912H1036.8V19.6748ZM1044.8 24.3564C1044.51 25.4345 1043.52 26.1025 1042.14 26.1025C1040.39 26.1025 1039.29 24.8369 1039.29 22.8388C1039.29 20.8525 1040.41 19.5634 1042.14 19.5634C1043.85 19.5634 1044.88 20.7763 1044.88 22.7392V23.1259H1040.34V23.1728C1040.39 24.4208 1041.09 25.2119 1042.16 25.2119C1042.98 25.2119 1043.53 24.9131 1043.79 24.3564H1044.8ZM1040.34 22.3115H1043.82C1043.8 21.1924 1043.13 20.4541 1042.13 20.4541C1041.12 20.4541 1040.42 21.1924 1040.34 22.3115ZM1048.55 19.5635C1049.88 19.5635 1050.8 20.2197 1050.93 21.2569H1049.94C1049.8 20.753 1049.31 20.419 1048.55 20.419C1047.8 20.419 1047.21 20.7999 1047.21 21.3624C1047.21 21.796 1047.56 22.0655 1048.31 22.2472L1049.28 22.4816C1050.47 22.7687 1051.04 23.2843 1051.04 24.1925C1051.04 25.3234 1049.95 26.1027 1048.51 26.1027C1047.11 26.1027 1046.14 25.4289 1046.03 24.38H1047.07C1047.24 24.9132 1047.74 25.253 1048.55 25.253C1049.4 25.253 1050.01 24.8487 1050.01 24.2686C1050.01 23.835 1049.68 23.542 1049.01 23.378L1047.92 23.1143C1046.74 22.8272 1046.2 22.3174 1046.2 21.4034C1046.2 20.3545 1047.21 19.5635 1048.55 19.5635Z" fill="white"/>
</g>
<g clip-path="url(#clip7_2_3380)">
<path fill-rule="evenodd" clip-rule="evenodd" d="M1134.59 18.0341V19.6691H1136V20.5131H1134.59V24.0871C1134.59 24.8311 1134.87 25.1471 1135.53 25.1471C1135.71 25.1471 1135.81 25.1411 1136 25.1241V25.9731C1135.8 26.0091 1135.6 26.0321 1135.4 26.0321C1134.1 26.0321 1133.58 25.5521 1133.58 24.3451V20.5131H1132.56V19.6691H1133.58V18.0341H1134.59ZM1128.46 19.6691H1129.42V20.6061H1129.51C1129.7 19.9911 1130.43 19.5571 1131.26 19.5571C1131.43 19.5571 1131.64 19.5691 1131.77 19.5871V20.5951C1131.69 20.5711 1131.32 20.5361 1131.12 20.5361C1130.16 20.5361 1129.47 21.1801 1129.47 22.0711V25.9851H1128.46V19.6691ZM1126 22.8271C1126 21.3271 1125.32 20.4661 1124.13 20.4661C1122.93 20.4661 1122.26 21.3271 1122.26 22.8271C1122.26 24.3211 1122.93 25.1881 1124.13 25.1881C1125.32 25.1881 1126 24.3211 1126 22.8271ZM1121.21 22.8271C1121.21 20.7941 1122.33 19.5571 1124.13 19.5571C1125.93 19.5571 1127.04 20.7941 1127.04 22.8271C1127.04 24.8541 1125.93 26.0971 1124.13 26.0971C1122.33 26.0971 1121.21 24.8541 1121.21 22.8271ZM1119.11 22.8271C1119.11 21.3501 1118.41 20.4661 1117.26 20.4661C1116.12 20.4661 1115.4 21.3741 1115.4 22.8271C1115.4 24.2741 1116.12 25.1881 1117.25 25.1881C1118.41 25.1881 1119.11 24.3041 1119.11 22.8271ZM1120.15 22.8271C1120.15 24.8021 1119.1 26.0971 1117.49 26.0971C1116.59 26.0971 1115.87 25.7041 1115.52 25.0361H1115.43V28.0951H1114.42V19.6691H1115.38V20.7231H1115.47C1115.88 19.9971 1116.63 19.5571 1117.49 19.5571C1119.11 19.5571 1120.15 20.8411 1120.15 22.8271ZM1112.1 22.8271C1112.1 21.3501 1111.41 20.4661 1110.26 20.4661C1109.11 20.4661 1108.39 21.3741 1108.39 22.8271C1108.39 24.2741 1109.11 25.1881 1110.25 25.1881C1111.41 25.1881 1112.1 24.3041 1112.1 22.8271ZM1113.14 22.8271C1113.14 24.8021 1112.1 26.0971 1110.49 26.0971C1109.59 26.0971 1108.86 25.7041 1108.52 25.0361H1108.42V28.0951H1107.41V19.6691H1108.38V20.7231H1108.47C1108.87 19.9971 1109.63 19.5571 1110.49 19.5571C1112.1 19.5571 1113.14 20.8411 1113.14 22.8271ZM1105.5 25.9851H1104.54V24.9951H1104.44C1104.13 25.6981 1103.45 26.0971 1102.49 26.0971C1101.07 26.0971 1100.33 25.2531 1100.33 23.7591V19.6691H1101.34V23.5131C1101.34 24.6491 1101.76 25.1771 1102.77 25.1771C1103.88 25.1771 1104.49 24.5141 1104.49 23.4071V19.6691H1105.5V25.9851ZM1093.81 23.7761C1093.94 24.6611 1094.78 25.2231 1095.98 25.2231C1097.12 25.2231 1097.96 24.6081 1097.96 23.7701C1097.96 23.0501 1097.43 22.5931 1096.26 22.3001L1095.18 22.0181C1093.65 21.6321 1092.99 20.9401 1092.99 19.7391C1092.99 18.3041 1094.19 17.3311 1095.98 17.3311C1097.61 17.3311 1098.83 18.3041 1098.92 19.6691H1097.86C1097.71 18.8021 1097 18.2861 1095.94 18.2861C1094.82 18.2861 1094.07 18.8481 1094.07 19.7041C1094.07 20.3661 1094.54 20.7471 1095.7 21.0461L1096.59 21.2801C1098.34 21.7201 1099.04 22.3991 1099.04 23.6411C1099.04 25.1941 1097.82 26.1841 1095.88 26.1841C1094.09 26.1841 1092.85 25.2351 1092.74 23.7761H1093.81Z" fill="white"/>
</g>
<g clip-path="url(#clip8_2_3380)">
<path d="M1191.2 27.3428L1187.7 23.8428C1188.58 22.763 1189.01 21.3857 1188.91 19.9956C1188.8 18.6055 1188.17 17.3088 1187.14 16.3736C1186.1 15.4383 1184.75 14.936 1183.35 14.9704C1181.96 15.0048 1180.63 15.5733 1179.65 16.5584C1178.66 17.5436 1178.09 18.87 1178.05 20.2636C1178.02 21.6572 1178.52 23.0114 1179.45 24.0464C1180.39 25.0814 1181.68 25.7181 1183.07 25.8248C1184.46 25.9315 1185.84 25.5001 1186.92 24.6198L1190.42 28.1198C1190.47 28.1709 1190.53 28.2114 1190.6 28.2391C1190.67 28.2667 1190.74 28.281 1190.81 28.281C1190.88 28.281 1190.95 28.2667 1191.02 28.2391C1191.09 28.2114 1191.15 28.1709 1191.2 28.1198C1191.25 28.0687 1191.29 28.0081 1191.32 27.9414C1191.35 27.8746 1191.36 27.8031 1191.36 27.7308C1191.36 27.6586 1191.35 27.5871 1191.32 27.5203C1191.29 27.4536 1191.25 27.3929 1191.2 27.3418V27.3428ZM1179.18 20.4178C1179.18 19.5637 1179.43 18.7287 1179.91 18.0186C1180.38 17.3085 1181.06 16.7551 1181.84 16.4283C1182.63 16.1016 1183.5 16.0162 1184.34 16.1829C1185.18 16.3497 1185.95 16.7611 1186.55 17.3652C1187.16 17.9693 1187.57 18.7388 1187.73 19.5766C1187.9 20.4144 1187.81 21.2827 1187.49 22.0719C1187.16 22.861 1186.61 23.5355 1185.9 24.01C1185.19 24.4846 1184.35 24.7378 1183.5 24.7378C1182.35 24.7368 1181.25 24.2813 1180.44 23.4713C1179.63 22.6613 1179.18 21.5632 1179.18 20.4178Z" fill="white"/>
<path d="M1191.2 71.5928L1187.7 68.0928C1188.58 67.013 1189.01 65.6357 1188.91 64.2456C1188.8 62.8555 1188.17 61.5588 1187.14 60.6236C1186.1 59.6883 1184.75 59.186 1183.35 59.2204C1181.96 59.2548 1180.63 59.8233 1179.65 60.8084C1178.66 61.7936 1178.09 63.12 1178.05 64.5136C1178.02 65.9072 1178.52 67.2614 1179.45 68.2964C1180.39 69.3314 1181.68 69.9681 1183.07 70.0748C1184.46 70.1815 1185.84 69.7501 1186.92 68.8698L1190.42 72.3698C1190.52 72.473 1190.66 72.531 1190.81 72.531C1190.96 72.531 1191.1 72.473 1191.2 72.3698C1191.3 72.2667 1191.36 72.1267 1191.36 71.9808C1191.36 71.8349 1191.3 71.695 1191.2 71.5918V71.5928ZM1179.18 64.6678C1179.18 63.8137 1179.43 62.9787 1179.91 62.2686C1180.38 61.5585 1181.06 61.0051 1181.84 60.6783C1182.63 60.3516 1183.5 60.2662 1184.34 60.4329C1185.18 60.5997 1185.95 61.0111 1186.55 61.6152C1187.16 62.2193 1187.57 62.9888 1187.73 63.8266C1187.9 64.6644 1187.81 65.5327 1187.49 66.3219C1187.16 67.111 1186.61 67.7855 1185.9 68.26C1185.19 68.7346 1184.35 68.9878 1183.5 68.9878C1182.35 68.9868 1181.25 68.5313 1180.44 67.7213C1179.63 66.9114 1179.18 65.8132 1179.18 64.6678Z" fill="#86868B"/>
</g>
<g clip-path="url(#clip9_2_3380)">
<path fill-rule="evenodd" clip-rule="evenodd" d="M1244.97 25.9C1244.97 26.5 1244.47 27 1243.87 27H1235.07C1234.47 27 1233.97 26.5 1233.97 25.9V18C1233.97 17.5 1234.47 17 1235.07 17H1243.97C1244.57 17 1245.07 17.5 1245.07 18.1V25.9H1244.97ZM1239.47 14C1240.67 14 1241.57 14.9 1241.77 16H1237.17C1237.37 14.9 1238.27 14 1239.47 14ZM1243.87 16H1242.77C1242.57 14.3 1241.17 13 1239.47 13C1237.77 13 1236.37 14.3 1236.17 16H1235.07C1233.87 16 1232.97 16.9 1232.97 18.1V26C1232.97 27.1 1233.87 28 1235.07 28H1243.97C1245.07 28 1246.07 27.1 1246.07 25.9V18C1245.97 16.9 1245.07 16 1243.87 16Z" fill="white"/>
</g>
<defs>
<clipPath id="clip0_2_3380">
<rect width="14" height="44" fill="white" transform="translate(266)"/>
</clipPath>
<clipPath id="clip1_2_3380">
<rect width="30" height="44" fill="white" transform="translate(320.75)"/>
</clipPath>
<clipPath id="clip2_2_3380">
<rect width="23" height="44" fill="white" transform="translate(391.5)"/>
</clipPath>
<clipPath id="clip3_2_3380">
<rect width="43" height="44" fill="white" transform="translate(674.492)"/>
</clipPath>
<clipPath id="clip4_2_3380">
<rect width="65" height="44" fill="white" transform="translate(758.234)"/>
</clipPath>
<clipPath id="clip5_2_3380">
<rect width="80" height="44" fill="white" transform="translate(863.984)"/>
</clipPath>
<clipPath id="clip6_2_3380">
<rect width="67" height="44" fill="white" transform="translate(984.727)"/>
</clipPath>
<clipPath id="clip7_2_3380">
<rect width="44" height="44" fill="white" transform="translate(1092.47)"/>
</clipPath>
<clipPath id="clip8_2_3380">
<rect width="15" height="88" fill="white" transform="translate(1177.22)"/>
</clipPath>
<clipPath id="clip9_2_3380">
<rect width="13" height="44" fill="white" transform="translate(1232.97)"/>
</clipPath>
</defs>
</svg>
