<svg width="14" height="73" viewBox="0 0 14 73" fill="none" xmlns="http://www.w3.org/2000/svg">
<path d="M4.02003 17.0583C3.77003 16.8983 3.51003 16.6683 3.25003 16.3483C3.07003 16.1383 2.85003 15.8383 2.59003 15.4483C2.14003 14.7983 1.77003 14.0483 1.49003 13.1983C1.18003 12.2683 1.03003 11.3783 1.03003 10.5083C1.03003 9.53828 1.24003 8.68828 1.65003 7.97828C1.97003 7.40828 2.40003 6.95828 2.95003 6.62828C3.50003 6.28828 4.08003 6.11828 4.71003 6.10828C4.93003 6.10828 5.16003 6.13828 5.41003 6.19828C5.59003 6.24828 5.81003 6.32828 6.07003 6.42828C6.41003 6.55828 6.60003 6.63828 6.66003 6.65828C6.86003 6.72828 7.03003 6.75828 7.16003 6.75828C7.26003 6.75828 7.40003 6.72828 7.56003 6.67828C7.65003 6.64828 7.82003 6.58828 8.06003 6.48828C8.30003 6.39828 8.49003 6.32828 8.64003 6.26828C8.87003 6.19828 9.09003 6.13828 9.29003 6.10828C9.53003 6.06828 9.77003 6.05828 10 6.07828C10.44 6.10828 10.84 6.19828 11.2 6.33828C11.83 6.58828 12.34 6.98828 12.72 7.54828C12.56 7.64828 12.41 7.75828 12.27 7.88828C11.96 8.16828 11.7 8.47828 11.51 8.81828C11.24 9.29828 11.11 9.82828 11.11 10.3783C11.12 11.0483 11.29 11.6383 11.63 12.1483C11.87 12.5183 12.19 12.8383 12.58 13.0983C12.77 13.2283 12.94 13.3183 13.1 13.3783C13.02 13.6383 12.93 13.8683 12.85 14.0583C12.63 14.5783 12.37 15.0483 12.08 15.4883C11.81 15.8783 11.6 16.1683 11.44 16.3583C11.19 16.6583 10.95 16.8783 10.71 17.0383C10.43 17.2183 10.13 17.3083 9.81003 17.3083C9.59003 17.3183 9.38003 17.2883 9.17003 17.2283C9.05003 17.1883 8.87003 17.1283 8.64003 17.0283C8.41003 16.9283 8.22003 16.8583 8.08003 16.8183C7.85003 16.7583 7.61003 16.7283 7.36003 16.7283C7.11003 16.7283 6.87003 16.7583 6.64003 16.8183C6.48003 16.8583 6.30003 16.9283 6.08003 17.0183C5.82003 17.1283 5.65003 17.1983 5.55003 17.2283C5.35003 17.2883 5.14003 17.3283 4.94003 17.3383C4.62003 17.3383 4.32003 17.2483 4.02003 17.0583ZM8.26003 5.63828C7.84003 5.84828 7.44003 5.93828 7.04003 5.90828C6.98003 5.50828 7.04003 5.09828 7.21003 4.64828C7.36003 4.26828 7.56003 3.91828 7.83003 3.60828C8.10003 3.29828 8.43003 3.03828 8.84003 2.82828C9.25003 2.61828 9.64003 2.50828 10.01 2.48828C10.06 2.90828 10.01 3.32828 9.86003 3.76828C9.72003 4.16828 9.51003 4.52828 9.24003 4.85828C8.97003 5.18828 8.64003 5.44828 8.26003 5.63828Z" fill="#555555"/>
<path d="M4.02003 35.0583C3.77003 34.8983 3.51003 34.6683 3.25003 34.3483C3.07003 34.1383 2.85003 33.8383 2.59003 33.4483C2.14003 32.7983 1.77003 32.0483 1.49003 31.1983C1.18003 30.2683 1.03003 29.3783 1.03003 28.5083C1.03003 27.5383 1.24003 26.6883 1.65003 25.9783C1.97003 25.4083 2.40003 24.9583 2.95003 24.6283C3.50003 24.2883 4.08003 24.1183 4.71003 24.1083C4.93003 24.1083 5.16003 24.1383 5.41003 24.1983C5.59003 24.2483 5.81003 24.3283 6.07003 24.4283C6.41003 24.5583 6.60003 24.6383 6.66003 24.6583C6.86003 24.7283 7.03003 24.7583 7.16003 24.7583C7.26003 24.7583 7.40003 24.7283 7.56003 24.6783C7.65003 24.6483 7.82003 24.5883 8.06003 24.4883C8.30003 24.3983 8.49003 24.3283 8.64003 24.2683C8.87003 24.1983 9.09003 24.1383 9.29003 24.1083C9.53003 24.0683 9.77003 24.0583 10 24.0783C10.44 24.1083 10.84 24.1983 11.2 24.3383C11.83 24.5883 12.34 24.9883 12.72 25.5483C12.56 25.6483 12.41 25.7583 12.27 25.8883C11.96 26.1683 11.7 26.4783 11.51 26.8183C11.24 27.2983 11.11 27.8283 11.11 28.3783C11.12 29.0483 11.29 29.6383 11.63 30.1483C11.87 30.5183 12.19 30.8383 12.58 31.0983C12.77 31.2283 12.94 31.3183 13.1 31.3783C13.02 31.6383 12.93 31.8683 12.85 32.0583C12.63 32.5783 12.37 33.0483 12.08 33.4883C11.81 33.8783 11.6 34.1683 11.44 34.3583C11.19 34.6583 10.95 34.8783 10.71 35.0383C10.43 35.2183 10.13 35.3083 9.81003 35.3083C9.59003 35.3183 9.38003 35.2883 9.17003 35.2283C9.05003 35.1883 8.87003 35.1283 8.64003 35.0283C8.41003 34.9283 8.22003 34.8583 8.08003 34.8183C7.85003 34.7583 7.61003 34.7283 7.36003 34.7283C7.11003 34.7283 6.87003 34.7583 6.64003 34.8183C6.48003 34.8583 6.30003 34.9283 6.08003 35.0183C5.82003 35.1283 5.65003 35.1983 5.55003 35.2283C5.35003 35.2883 5.14003 35.3283 4.94003 35.3383C4.62003 35.3383 4.32003 35.2483 4.02003 35.0583ZM8.26003 23.6383C7.84003 23.8483 7.44003 23.9383 7.04003 23.9083C6.98003 23.5083 7.04003 23.0983 7.21003 22.6483C7.36003 22.2683 7.56003 21.9183 7.83003 21.6083C8.10003 21.2983 8.43003 21.0383 8.84003 20.8283C9.25003 20.6183 9.64003 20.5083 10.01 20.4883C10.06 20.9083 10.01 21.3283 9.86003 21.7683C9.72003 22.1683 9.51003 22.5283 9.24003 22.8583C8.97003 23.1883 8.64003 23.4483 8.26003 23.6383Z" fill="#333333"/>
<path d="M4.02003 53.0583C3.77003 52.8983 3.51003 52.6683 3.25003 52.3483C3.07003 52.1383 2.85003 51.8383 2.59003 51.4483C2.14003 50.7983 1.77003 50.0483 1.49003 49.1983C1.18003 48.2683 1.03003 47.3783 1.03003 46.5083C1.03003 45.5383 1.24003 44.6883 1.65003 43.9783C1.97003 43.4083 2.40003 42.9583 2.95003 42.6283C3.50003 42.2883 4.08003 42.1183 4.71003 42.1083C4.93003 42.1083 5.16003 42.1383 5.41003 42.1983C5.59003 42.2483 5.81003 42.3283 6.07003 42.4283C6.41003 42.5583 6.60003 42.6383 6.66003 42.6583C6.86003 42.7283 7.03003 42.7583 7.16003 42.7583C7.26003 42.7583 7.40003 42.7283 7.56003 42.6783C7.65003 42.6483 7.82003 42.5883 8.06003 42.4883C8.30003 42.3983 8.49003 42.3283 8.64003 42.2683C8.87003 42.1983 9.09003 42.1383 9.29003 42.1083C9.53003 42.0683 9.77003 42.0583 10 42.0783C10.44 42.1083 10.84 42.1983 11.2 42.3383C11.83 42.5883 12.34 42.9883 12.72 43.5483C12.56 43.6483 12.41 43.7583 12.27 43.8883C11.96 44.1683 11.7 44.4783 11.51 44.8183C11.24 45.2983 11.11 45.8283 11.11 46.3783C11.12 47.0483 11.29 47.6383 11.63 48.1483C11.87 48.5183 12.19 48.8383 12.58 49.0983C12.77 49.2283 12.94 49.3183 13.1 49.3783C13.02 49.6383 12.93 49.8683 12.85 50.0583C12.63 50.5783 12.37 51.0483 12.08 51.4883C11.81 51.8783 11.6 52.1683 11.44 52.3583C11.19 52.6583 10.95 52.8783 10.71 53.0383C10.43 53.2183 10.13 53.3083 9.81003 53.3083C9.59003 53.3183 9.38003 53.2883 9.17003 53.2283C9.05003 53.1883 8.87003 53.1283 8.64003 53.0283C8.41003 52.9283 8.22003 52.8583 8.08003 52.8183C7.85003 52.7583 7.61003 52.7283 7.36003 52.7283C7.11003 52.7283 6.87003 52.7583 6.64003 52.8183C6.48003 52.8583 6.30003 52.9283 6.08003 53.0183C5.82003 53.1283 5.65003 53.1983 5.55003 53.2283C5.35003 53.2883 5.14003 53.3283 4.94003 53.3383C4.62003 53.3383 4.32003 53.2483 4.02003 53.0583ZM8.26003 41.6383C7.84003 41.8483 7.44003 41.9383 7.04003 41.9083C6.98003 41.5083 7.04003 41.0983 7.21003 40.6483C7.36003 40.2683 7.56003 39.9183 7.83003 39.6083C8.10003 39.2983 8.43003 39.0383 8.84003 38.8283C9.25003 38.6183 9.64003 38.5083 10.01 38.4883C10.06 38.9083 10.01 39.3283 9.86003 39.7683C9.72003 40.1683 9.51003 40.5283 9.24003 40.8583C8.97003 41.1883 8.64003 41.4483 8.26003 41.6383Z" fill="#515154"/>
<path d="M4.02003 71.0583C3.77003 70.8983 3.51003 70.6683 3.25003 70.3483C3.07003 70.1383 2.85003 69.8383 2.59003 69.4483C2.14003 68.7983 1.77003 68.0483 1.49003 67.1983C1.18003 66.2683 1.03003 65.3783 1.03003 64.5083C1.03003 63.5383 1.24003 62.6883 1.65003 61.9783C1.97003 61.4083 2.40003 60.9583 2.95003 60.6283C3.50003 60.2883 4.08003 60.1183 4.71003 60.1083C4.93003 60.1083 5.16003 60.1383 5.41003 60.1983C5.59003 60.2483 5.81003 60.3283 6.07003 60.4283C6.41003 60.5583 6.60003 60.6383 6.66003 60.6583C6.86003 60.7283 7.03003 60.7583 7.16003 60.7583C7.26003 60.7583 7.40003 60.7283 7.56003 60.6783C7.65003 60.6483 7.82003 60.5883 8.06003 60.4883C8.30003 60.3983 8.49003 60.3283 8.64003 60.2683C8.87003 60.1983 9.09003 60.1383 9.29003 60.1083C9.53003 60.0683 9.77003 60.0583 10 60.0783C10.44 60.1083 10.84 60.1983 11.2 60.3383C11.83 60.5883 12.34 60.9883 12.72 61.5483C12.56 61.6483 12.41 61.7583 12.27 61.8883C11.96 62.1683 11.7 62.4783 11.51 62.8183C11.24 63.2983 11.11 63.8283 11.11 64.3783C11.12 65.0483 11.29 65.6383 11.63 66.1483C11.87 66.5183 12.19 66.8383 12.58 67.0983C12.77 67.2283 12.94 67.3183 13.1 67.3783C13.02 67.6383 12.93 67.8683 12.85 68.0583C12.63 68.5783 12.37 69.0483 12.08 69.4883C11.81 69.8783 11.6 70.1683 11.44 70.3583C11.19 70.6583 10.95 70.8783 10.71 71.0383C10.43 71.2183 10.13 71.3083 9.81003 71.3083C9.59003 71.3183 9.38003 71.2883 9.17003 71.2283C9.05003 71.1883 8.87003 71.1283 8.64003 71.0283C8.41003 70.9283 8.22003 70.8583 8.08003 70.8183C7.85003 70.7583 7.61003 70.7283 7.36003 70.7283C7.11003 70.7283 6.87003 70.7583 6.64003 70.8183C6.48003 70.8583 6.30003 70.9283 6.08003 71.0183C5.82003 71.1283 5.65003 71.1983 5.55003 71.2283C5.35003 71.2883 5.14003 71.3283 4.94003 71.3383C4.62003 71.3383 4.32003 71.2483 4.02003 71.0583ZM8.26003 59.6383C7.84003 59.8483 7.44003 59.9383 7.04003 59.9083C6.98003 59.5083 7.04003 59.0983 7.21003 58.6483C7.36003 58.2683 7.56003 57.9183 7.83003 57.6083C8.10003 57.2983 8.43003 57.0383 8.84003 56.8283C9.25003 56.6183 9.64003 56.5083 10.01 56.4883C10.06 56.9083 10.01 57.3283 9.86003 57.7683C9.72003 58.1683 9.51003 58.5283 9.24003 58.8583C8.97003 59.1883 8.64003 59.4483 8.26003 59.6383Z" fill="#1D1D1F"/>
</svg>
