<svg width="32" height="33" viewBox="0 0 32 33" fill="none" xmlns="http://www.w3.org/2000/svg">
<g clip-path="url(#clip0_2_2487)">
<path d="M16 1.47266C18.9783 1.47266 21.8898 2.35584 24.3662 4.01053C26.8426 5.66521 28.7728 8.01708 29.9125 10.7687C31.0523 13.5204 31.3505 16.5482 30.7695 19.4693C30.1884 22.3904 28.7542 25.0737 26.6482 27.1797C24.5422 29.2857 21.8589 30.7199 18.9378 31.301C16.0167 31.882 12.9889 31.5838 10.2372 30.444C7.48558 29.3043 5.13372 27.3741 3.47903 24.8977C1.82435 22.4213 0.941162 19.5098 0.941162 16.5315C0.941162 12.5376 2.52771 8.70736 5.35179 5.88328C8.17587 3.05921 12.0061 1.47266 16 1.47266V1.47266Z" stroke="white" stroke-width="1.50588"/>
<path d="M18.8235 11.1665C19.0232 11.1665 19.2147 11.2458 19.3559 11.387C19.4971 11.5282 19.5764 11.7198 19.5764 11.9194V20.9547C19.5764 21.1544 19.4971 21.3459 19.3559 21.4872C19.2147 21.6284 19.0232 21.7077 18.8235 21.7077C18.6238 21.7077 18.4323 21.6284 18.2911 21.4872C18.1499 21.3459 18.0706 21.1544 18.0706 20.9547V11.9194C18.0706 11.7198 18.1499 11.5282 18.2911 11.387C18.4323 11.2458 18.6238 11.1665 18.8235 11.1665Z" fill="white"/>
<path d="M13.1765 11.1665C13.3762 11.1665 13.5677 11.2458 13.7089 11.387C13.8501 11.5282 13.9295 11.7198 13.9295 11.9194V20.9547C13.9295 21.1544 13.8501 21.3459 13.7089 21.4872C13.5677 21.6284 13.3762 21.7077 13.1765 21.7077C12.9768 21.7077 12.7853 21.6284 12.6441 21.4872C12.5029 21.3459 12.4236 21.1544 12.4236 20.9547V11.9194C12.4236 11.7198 12.5029 11.5282 12.6441 11.387C12.7853 11.2458 12.9768 11.1665 13.1765 11.1665Z" fill="white"/>
</g>
<defs>
<clipPath id="clip0_2_2487">
<rect width="32" height="32" fill="white" transform="translate(0 0.53125)"/>
</clipPath>
</defs>
</svg>
